<?xml version="1.0" standalone="no"?>
<!DOCTYPE svg PUBLIC "-//W3C//DTD SVG 20010904//EN"
 "http://www.w3.org/TR/2001/REC-SVG-20010904/DTD/svg10.dtd">
<svg version="1.0" xmlns="http://www.w3.org/2000/svg"
 width="1107.000000pt" height="721.000000pt" viewBox="0 0 1107.000000 721.000000"
 preserveAspectRatio="xMidYMid meet">
<metadata>
Created by potrace 1.13, written by Peter Selinger 2001-2015
</metadata>
<g transform="translate(0.000000,721.000000) scale(0.100000,-0.100000)"
fill="#000000" stroke="none">
<path d="M5455 6968 c-57 -16 -187 -93 -203 -120 -16 -26 -15 -27 44 -90 32
-35 72 -87 87 -116 l29 -53 -29 7 c-15 3 -35 8 -44 10 -9 3 -29 0 -44 -6 l-28
-11 24 -26 c22 -23 22 -25 4 -20 -11 3 -54 9 -95 12 -121 10 -258 -31 -333
-101 -15 -14 -27 -26 -27 -28 0 -2 48 -3 108 -3 69 1 121 -3 146 -12 l39 -14
-69 -34 c-43 -21 -112 -43 -184 -58 -259 -54 -482 -130 -719 -246 l-155 -76
-48 35 c-28 19 -65 36 -88 39 -36 5 -40 3 -40 -15 0 -11 4 -23 9 -26 8 -5 51
-90 51 -100 0 -2 -37 -30 -82 -62 -214 -148 -482 -396 -631 -584 -169 -213
-343 -513 -436 -754 -133 -345 -192 -662 -195 -1038 0 -115 -3 -208 -6 -208
-17 1 -25 21 -28 64 -4 93 -65 186 -146 225 -24 12 -48 33 -55 48 -43 93 -137
156 -233 156 -45 -1 -61 3 -75 19 -76 84 -277 97 -390 25 -39 -24 -57 -30 -96
-28 -90 5 -177 -75 -177 -162 0 -27 -5 -37 -20 -42 -11 -3 -35 -24 -54 -47
-41 -47 -58 -111 -45 -166 13 -55 -4 -83 -89 -150 -195 -151 -253 -250 -267
-454 -7 -103 -7 -106 16 -122 32 -22 40 -21 99 20 47 32 140 78 145 72 1 -2
10 -19 19 -38 9 -19 34 -48 55 -64 36 -26 38 -31 34 -70 -3 -22 -17 -58 -31
-79 -30 -44 -33 -89 -7 -117 17 -19 17 -21 -16 -57 -43 -48 -78 -103 -89 -143
-17 -61 22 -129 87 -151 19 -6 45 -21 59 -34 32 -30 90 -41 113 -22 29 25 50
28 61 7 22 -40 127 -44 169 -6 28 26 51 -7 51 -75 1 -97 50 -167 135 -190 19
-5 37 -18 40 -28 22 -70 121 -150 189 -153 40 -1 40 0 -21 -71 -18 -20 -33
-45 -33 -55 0 -10 20 -34 46 -52 44 -33 97 -104 123 -165 26 -62 12 -224 -40
-444 -34 -145 -34 -141 -11 -141 11 0 35 24 59 58 144 205 307 337 479 388
114 34 404 17 404 -25 0 -57 -25 -197 -47 -264 -20 -59 -23 -81 -14 -86 19
-12 569 -58 1026 -85 1288 -78 2287 -61 3535 59 389 37 469 47 487 60 14 10
13 15 -5 51 -23 46 -52 174 -52 232 l0 40 68 13 c96 20 263 17 336 -5 170 -51
336 -185 479 -388 26 -36 48 -58 60 -58 22 0 21 17 -12 143 -30 117 -52 261
-53 343 -1 59 4 83 25 126 28 56 70 107 126 150 27 20 33 31 28 49 -9 36 -169
197 -266 268 l-84 62 45 43 c67 64 133 106 205 132 l65 22 37 -21 c30 -19 51
-22 131 -21 80 0 104 4 150 26 84 39 103 65 104 140 1 60 2 63 25 60 47 -5 53
-19 46 -102 -6 -66 -4 -79 12 -99 24 -29 89 -33 127 -7 61 39 74 154 27 230
-24 38 -108 86 -150 86 -33 0 -91 35 -91 55 0 31 29 84 54 100 24 16 28 16 60
1 43 -20 54 -20 99 3 29 15 51 18 95 14 74 -6 254 11 312 30 25 8 62 18 82 21
43 8 103 62 124 113 19 45 1 95 -65 175 -29 35 -66 85 -84 113 -48 74 -105
100 -218 98 -102 -1 -103 1 -86 82 l11 56 -32 30 c-18 16 -32 39 -32 50 0 11
-9 37 -20 59 -11 22 -20 44 -20 51 0 6 -7 25 -15 43 l-15 32 64 67 c35 37 70
67 79 67 8 0 25 8 37 18 21 17 21 18 3 39 -24 28 -148 57 -245 56 -63 0 -84
-5 -123 -26 -41 -24 -47 -24 -52 -9 -74 215 -244 453 -412 580 -91 69 -186
112 -204 92 -9 -9 -6 -15 13 -28 40 -25 127 -119 197 -212 109 -144 193 -348
193 -469 l0 -44 -26 24 c-14 13 -35 41 -45 62 -11 20 -24 37 -29 37 -13 0 -30
-34 -30 -61 0 -17 -4 -20 -22 -15 -13 3 -41 6 -63 6 -37 0 -44 5 -92 64 -95
118 -282 262 -471 364 -69 38 -88 52 -90 72 -8 66 -76 310 -117 424 -151 417
-372 764 -685 1076 -353 354 -767 598 -1245 735 -114 33 -154 49 -170 67 -33
40 -86 74 -152 98 -35 13 -63 24 -63 26 0 7 57 57 96 84 46 32 149 70 191 70
75 1 63 41 -18 60 -62 15 -156 15 -240 0 -71 -13 -229 -72 -271 -102 l-28 -19
0 104 c0 111 -22 223 -59 295 -22 44 -41 53 -86 40z m97 -158 c11 -44 20 -127
23 -200 2 -69 1 -107 -3 -85 -6 28 -8 10 -8 -62 0 -56 -2 -105 -5 -108 -9 -9
-40 6 -33 16 3 5 0 9 -5 9 -6 0 -11 8 -11 18 -1 16 -1 16 -11 0 -17 -30 -29
-20 -29 23 0 113 -59 264 -132 340 -44 45 -40 51 10 12 34 -26 36 -17 4 20
-17 19 -3 23 17 5 10 -10 12 -10 7 -1 -4 8 8 20 33 32 l39 21 15 -43 c10 -28
16 -35 16 -20 1 12 -4 34 -9 49 -8 21 -7 31 6 45 9 10 21 16 25 13 5 -3 9 3 9
13 1 34 23 -16 42 -97z m523 -178 l-20 -5 20 -7 20 -8 -20 -6 c-62 -21 -154
-76 -198 -120 -41 -40 -62 -53 -101 -61 -27 -5 -51 -15 -53 -22 -3 -9 5 -9 33
-2 46 13 132 -1 197 -31 53 -25 53 -40 -1 -40 -29 0 -34 -3 -22 -11 12 -8 11
-9 -5 -5 -24 6 -167 24 -254 31 -98 8 -99 12 -20 84 50 45 84 67 117 76 26 7
38 14 27 14 -19 2 -19 2 -2 15 9 7 17 19 17 27 -1 10 -4 9 -11 -3 -5 -10 -18
-18 -28 -18 -10 0 -26 -9 -36 -20 -10 -12 -25 -18 -32 -16 -7 3 -13 0 -13 -7
-1 -17 -41 -62 -69 -77 -21 -11 -23 -10 -17 5 3 10 1 24 -6 33 -11 12 -6 20
27 49 62 54 182 102 303 123 52 8 179 11 147 2z m-713 -138 l88 -27 0 -43 0
-42 -47 14 c-55 17 -63 17 -63 4 0 -5 10 -10 23 -10 12 0 28 -4 36 -9 11 -7
10 -11 -5 -19 -24 -13 -174 -20 -174 -9 0 5 -11 7 -24 3 -12 -3 -26 -3 -30 1
-4 4 24 15 61 24 l68 17 -47 1 c-25 0 -68 10 -95 22 -26 11 -70 23 -98 26 -37
5 -44 8 -30 14 20 7 20 8 0 9 -18 1 -17 2 5 15 l25 14 -24 1 c-34 0 -21 9 30
20 72 15 204 3 301 -26z m-1382 -659 c0 6 10 -1 21 -15 l21 -25 -6 27 c-3 14
-9 34 -12 45 -4 11 8 4 29 -18 50 -52 64 -123 47 -240 -16 -113 -10 -211 14
-238 11 -12 16 -21 11 -21 -26 0 -72 96 -81 169 -8 73 -24 64 -24 -14 0 -54
25 -116 59 -153 19 -19 20 -23 7 -28 -25 -10 -19 -24 10 -24 l25 0 -28 -26
-28 -25 25 4 c14 3 40 8 58 12 l33 7 -26 -28 c-14 -15 -23 -29 -21 -32 3 -2
24 5 48 16 24 11 60 24 81 28 41 7 143 -10 194 -32 17 -8 36 -14 41 -14 6 0
14 -5 18 -11 5 -9 -12 -10 -62 -5 -73 7 -78 2 -17 -19 l38 -14 -35 -1 c-19 0
-42 -4 -49 -9 -12 -8 -9 -11 12 -17 37 -9 29 -29 -11 -30 -39 0 -50 -10 -22
-19 28 -9 20 -29 -13 -33 -30 -4 -35 -17 -11 -26 27 -10 9 -31 -32 -37 l-39
-6 33 -8 c43 -10 41 -23 -5 -27 l-38 -3 28 -14 c36 -19 34 -29 -5 -33 l-33 -4
30 -14 30 -14 -42 -4 c-50 -4 -55 -15 -12 -28 27 -8 29 -11 16 -28 -13 -17
-18 -18 -63 -7 -47 12 -74 22 -191 77 -101 48 -168 141 -203 283 -25 97 -17
143 38 241 57 100 70 135 88 222 16 80 16 244 0 293 -4 11 6 -5 23 -35 17 -30
30 -50 31 -45z m2683 -1 c-22 -20 -23 -23 -6 -15 31 16 40 13 17 -4 -23 -17
-11 -20 19 -4 21 12 21 12 4 -15 -10 -14 -13 -26 -8 -26 5 0 13 5 16 10 14 23
23 8 13 -21 -15 -43 -4 -170 23 -249 31 -95 79 -181 174 -310 107 -146 135
-210 131 -305 -5 -125 -93 -263 -231 -365 -100 -74 -123 -79 -245 -54 l-25 5
24 -20 c22 -20 22 -21 3 -21 -11 0 -48 9 -81 19 -34 10 -61 15 -61 11 0 -5 19
-21 43 -35 46 -29 23 -26 -52 6 -58 25 -60 24 -25 -12 l29 -31 -70 7 c-131 12
-240 43 -160 46 l40 1 -55 18 -55 17 65 4 65 4 -110 29 c-60 16 -114 33 -119
37 -6 5 15 9 48 9 68 0 66 15 -4 25 -27 4 -55 14 -62 22 -10 12 -9 15 7 13 41
-5 98 0 91 8 -4 4 -30 12 -58 17 -70 14 -75 35 -9 35 27 0 52 4 56 9 6 10 -54
31 -87 31 -10 0 -18 6 -18 13 0 8 16 12 50 12 63 0 66 17 6 29 -33 6 -46 13
-46 25 0 13 7 16 34 13 54 -6 65 3 26 23 -44 22 -42 19 -34 39 5 13 14 15 43
11 33 -6 35 -5 17 9 -10 8 -23 17 -29 19 -6 2 -7 8 -3 15 4 7 22 9 51 5 25 -3
45 -3 45 0 0 3 -15 15 -32 27 -20 13 -25 19 -13 16 11 -3 34 -8 50 -11 l30 -6
-27 25 c-38 34 -35 38 13 21 56 -20 57 -19 24 15 -36 38 -30 38 47 -3 l63 -33
-33 -49 c-40 -60 -28 -69 24 -20 57 53 86 66 47 21 -32 -36 -41 -56 -25 -56 4
0 32 20 62 45 64 52 80 57 48 15 -13 -19 -18 -34 -12 -39 5 -6 33 12 71 47 34
31 87 78 117 105 39 34 59 60 70 94 22 63 19 86 -4 43 l-19 -35 -1 50 -2 50
-11 -32 c-14 -38 -27 -52 -27 -30 0 8 -20 78 -46 154 -25 76 -49 163 -54 193
-18 108 32 219 130 286 46 32 58 31 23 -2z m-1515 -261 c2 -14 12 -23 25 -25
14 -2 23 -11 25 -25 3 -19 -1 -23 -22 -23 -19 0 -26 -5 -26 -20 0 -13 7 -20
19 -20 10 0 21 9 24 20 3 12 14 20 27 20 13 0 24 -8 27 -20 7 -26 43 -27 43
-1 0 13 -8 21 -22 23 -31 4 -31 42 -1 46 14 2 23 11 25 25 4 30 42 30 46 0 3
-17 10 -23 28 -23 19 0 24 -5 24 -25 0 -20 -5 -25 -25 -25 -18 0 -25 -5 -25
-20 0 -14 7 -20 24 -20 17 0 23 5 22 18 -1 12 7 18 27 20 22 3 27 -1 27 -17 0
-14 6 -21 20 -21 29 0 27 38 -2 42 -31 4 -31 42 -1 46 14 2 23 11 25 25 2 14
10 22 23 22 13 0 21 -8 23 -22 2 -14 11 -23 25 -25 14 -2 23 -11 25 -25 3 -19
-1 -23 -22 -23 -19 0 -26 -5 -26 -20 0 -13 7 -20 19 -20 10 0 21 9 24 20 3 12
14 20 25 20 14 0 22 8 24 23 4 29 43 36 51 8 6 -24 0 -31 -25 -31 -11 0 -18
-7 -18 -20 0 -13 7 -20 20 -20 13 0 20 7 20 20 0 15 7 20 25 20 34 0 37 47 3
52 -15 2 -23 10 -23 23 0 29 39 27 43 -2 2 -14 11 -23 25 -25 30 -4 30 -42 0
-46 -15 -2 -23 -10 -23 -22 0 -12 8 -20 23 -22 14 -2 23 -11 25 -25 4 -30 42
-32 42 -3 0 13 -7 20 -20 20 -15 0 -20 7 -20 25 0 20 5 25 25 25 18 0 25 -5
25 -20 0 -13 7 -20 20 -20 13 0 22 -9 26 -25 8 -32 41 -34 46 -2 4 30 42 30
46 0 2 -14 11 -23 25 -25 14 -2 23 -11 25 -25 2 -15 10 -23 22 -23 12 0 20 8
22 23 2 14 11 23 26 25 18 3 22 -1 22 -22 0 -23 -9 -31 -32 -27 -5 0 -8 -11
-8 -25 0 -33 33 -30 38 4 3 16 10 22 28 22 19 0 24 5 24 26 0 21 4 25 23 22
14 -2 23 -11 25 -25 3 -19 -1 -23 -22 -23 -21 0 -26 -5 -26 -25 0 -18 -5 -25
-19 -25 -24 0 -32 -12 -21 -29 10 -17 40 -7 40 14 0 8 9 15 19 15 13 0 21 8
23 23 2 14 11 23 25 25 14 2 23 11 25 25 4 30 42 30 46 0 2 -17 10 -23 27 -23
17 0 25 6 27 23 2 14 10 22 23 22 29 0 27 -39 -2 -43 -17 -3 -23 -10 -23 -28
0 -19 -5 -24 -25 -24 -20 0 -25 5 -25 25 0 20 -5 25 -25 25 -20 0 -25 -5 -25
-25 0 -18 -5 -25 -20 -25 -13 0 -20 -7 -20 -20 0 -13 7 -20 20 -20 13 0 20 7
20 19 0 20 25 35 41 25 5 -3 9 -14 9 -25 0 -14 7 -19 25 -19 14 0 24 3 24 8
-4 23 4 32 26 32 20 0 25 -5 25 -26 0 -14 4 -23 9 -20 16 10 41 -5 41 -25 0
-12 7 -19 19 -19 10 0 21 -9 24 -19 6 -24 0 -31 -25 -31 -11 0 -18 -7 -18 -20
0 -13 7 -20 20 -20 13 0 20 7 20 20 0 15 7 20 25 20 20 0 25 5 25 25 0 20 -5
25 -26 25 -21 0 -25 4 -22 23 4 30 42 30 46 0 2 -13 12 -23 25 -25 46 -7 45
-140 -1 -146 -13 -2 -22 -10 -22 -21 0 -20 -69 -46 -99 -36 -10 3 -32 23 -50
45 -18 22 -57 59 -87 81 -29 23 -54 47 -54 53 0 18 -201 20 -248 4 -28 -10
-36 -10 -39 0 -6 17 -33 15 -33 -2 0 -16 -50 -35 -102 -40 -18 -2 -40 -5 -48
-9 -40 -14 -60 -15 -60 0 0 8 -6 13 -12 10 -7 -2 -12 -9 -11 -15 4 -19 -66
-27 -222 -27 -147 1 -235 14 -235 36 0 6 -9 8 -20 4 -27 -9 -120 25 -120 43 0
9 -6 12 -17 8 -17 -7 -123 32 -123 46 0 4 -11 8 -25 8 -20 0 -24 5 -22 22 1
14 -4 23 -15 26 -11 2 -18 -3 -18 -12 0 -11 -9 -16 -30 -16 -20 0 -30 5 -30
15 0 8 -9 15 -20 15 -13 0 -20 -7 -20 -19 0 -22 -39 -36 -87 -32 -18 1 -50 -3
-70 -10 -28 -9 -38 -9 -41 0 -2 6 -12 11 -23 11 -13 0 -19 -7 -19 -24 0 -22
-2 -23 -25 -13 -30 14 -29 41 3 45 30 5 30 39 0 44 -31 4 -31 42 -1 46 14 2
23 11 25 25 4 30 42 30 46 0 2 -13 11 -23 25 -25 12 -2 24 -12 27 -23 8 -31
40 -31 40 0 0 20 5 25 25 25 14 0 25 -4 25 -10 0 -21 2 -25 16 -33 19 -11 34
0 34 24 0 12 7 19 19 19 13 0 21 8 23 23 2 16 10 22 28 22 18 0 26 -6 28 -22
4 -29 42 -32 42 -4 0 13 -8 21 -22 23 -17 2 -23 10 -23 28 0 33 38 36 43 3 3
-17 10 -23 28 -23 13 0 23 3 23 8 -1 4 -1 15 0 25 2 28 45 18 49 -10 2 -15 10
-23 23 -23 28 0 25 38 -3 42 -32 4 -31 42 0 46 17 3 25 -2 29 -17 7 -27 43
-28 43 -2 0 13 -8 21 -22 23 -15 2 -23 10 -23 23 0 13 8 21 23 23 13 2 22 10
22 21 0 38 43 41 48 4z m-154 -369 c72 -31 174 -68 226 -82 86 -24 110 -27
260 -26 91 0 184 5 208 11 23 6 42 9 42 7 0 -2 -17 -15 -37 -29 -51 -34 -39
-32 65 14 92 41 192 74 192 64 0 -3 -11 -14 -24 -24 -30 -24 -98 -110 -71 -89
11 8 41 34 68 58 128 116 260 110 402 -20 67 -61 72 -83 18 -73 -21 3 -49 12
-63 19 -65 34 -79 43 -73 49 19 20 -30 3 -70 -24 -57 -38 -99 -89 -135 -166
-25 -53 -27 -68 -27 -178 0 -98 3 -126 19 -155 35 -66 86 -108 171 -142 77
-31 85 -32 231 -33 l150 0 -9 -41 c-7 -28 -5 -63 4 -115 12 -64 14 -69 17 -36
l3 38 47 -78 c26 -43 64 -100 85 -128 57 -75 191 -208 292 -290 177 -142 328
-326 390 -475 22 -52 26 -76 23 -126 -13 -206 -235 -302 -518 -223 -154 42
-189 73 -339 292 -49 73 -104 146 -122 162 -29 27 -28 23 14 -37 25 -38 43
-68 38 -68 -15 0 -158 156 -184 201 -32 55 -50 126 -82 318 -14 83 -32 173
-41 199 -34 101 -99 163 -170 161 -32 -1 -35 -2 -15 -8 20 -5 29 -20 47 -76
20 -64 22 -67 23 -33 1 20 -3 48 -9 62 -6 18 -6 26 1 26 17 0 50 -87 66 -178
23 -129 34 -143 29 -37 -2 50 -7 99 -11 110 l-7 20 13 -20 c32 -49 47 -162 43
-302 -3 -91 -1 -131 5 -118 5 11 10 35 10 53 1 18 5 31 9 28 10 -6 26 -93 45
-251 l14 -110 2 70 2 70 19 -24 c14 -16 20 -39 21 -75 1 -28 5 -64 9 -81 6
-23 8 -14 9 39 1 67 2 69 20 52 12 -11 23 -43 31 -93 18 -114 31 -133 27 -41
-2 43 0 75 5 72 4 -3 19 -26 33 -52 35 -68 48 -83 42 -52 -2 14 -8 33 -12 44
-7 16 -6 17 14 7 21 -12 78 -88 70 -95 -2 -2 -24 -14 -49 -26 -64 -33 -180
-153 -213 -223 -34 -71 -67 -196 -66 -251 l1 -41 12 40 12 40 13 -32 c7 -17
22 -40 33 -50 19 -17 19 -17 13 12 -4 17 -13 53 -21 82 -20 72 -17 85 8 34 28
-57 35 -37 12 34 -12 41 -14 61 -7 78 9 20 12 18 42 -38 33 -63 34 -57 6 36
-14 46 -15 61 -5 80 12 22 14 20 47 -45 19 -37 36 -66 39 -63 3 2 -9 41 -25
85 -23 63 -26 83 -17 91 9 8 21 -7 46 -59 19 -38 35 -68 37 -67 1 2 -8 39 -22
82 -18 60 -21 81 -12 87 19 12 20 11 55 -63 19 -39 36 -69 38 -66 2 2 -7 39
-21 82 -18 53 -23 81 -16 88 6 6 12 9 13 6 2 -2 17 -30 33 -62 42 -81 50 -81
20 1 -14 38 -25 73 -25 77 0 5 21 -23 46 -61 46 -71 50 -58 8 31 -13 27 -21
51 -18 54 5 6 29 -24 50 -63 26 -47 130 -168 181 -211 l48 -40 -53 68 c-56 70
-56 87 0 39 36 -31 124 -93 148 -106 8 -4 -7 14 -35 39 l-50 47 35 -7 c19 -4
55 -18 80 -30 25 -13 63 -30 85 -39 l40 -16 -25 20 c-14 11 -33 22 -42 26 -10
3 -18 9 -18 14 0 12 43 4 133 -22 71 -21 106 -19 40 2 -21 7 -42 15 -48 18
-19 12 102 32 165 27 64 -4 65 -4 23 8 l-42 12 41 34 c55 47 98 138 98 211 0
151 -167 389 -419 598 -64 53 -147 128 -186 168 -114 116 -242 311 -260 394
-7 33 -1 29 104 -75 131 -129 127 -125 115 -103 -5 9 -48 62 -97 117 -58 68
-94 101 -108 101 -15 0 -19 5 -15 16 3 9 6 20 6 25 0 5 8 9 18 9 35 0 161 48
214 83 30 19 81 59 113 89 l59 55 35 -20 36 -21 -29 32 -28 31 22 36 c21 34
23 35 40 20 28 -26 126 -52 222 -60 l88 -7 40 -76 c26 -51 36 -78 28 -83 -6
-4 -3 -9 9 -13 11 -4 25 -17 31 -31 11 -23 10 -24 -21 -20 l-32 5 33 -12 c23
-8 40 -24 53 -51 11 -21 19 -41 17 -43 -2 -2 -30 4 -62 12 -88 23 -89 11 -1
-16 74 -24 95 -41 95 -79 0 -4 -44 7 -97 26 -120 42 -111 29 16 -23 109 -45
105 -39 151 -220 43 -166 47 -158 -57 -123 -47 16 -88 28 -89 26 -2 -2 38 -21
89 -42 50 -21 93 -40 95 -41 2 -1 5 -18 9 -37 l5 -36 -52 20 c-29 11 -57 18
-64 16 -6 -2 18 -14 52 -28 48 -18 64 -30 70 -49 4 -14 7 -132 7 -263 l0 -237
-47 -43 c-57 -52 -62 -68 -10 -32 31 22 38 23 40 9 2 -9 -9 -30 -25 -47 -15
-18 -19 -24 -7 -14 11 9 23 17 26 17 3 0 -1 -31 -8 -70 -62 -326 -191 -623
-391 -902 l-55 -76 -96 -7 c-126 -8 -173 -23 -82 -25 36 -1 83 -4 105 -8 l40
-8 -130 -130 c-134 -133 -260 -235 -411 -329 -117 -74 -120 -74 -155 -32 -15
19 -51 51 -78 72 -28 21 -48 42 -45 47 3 4 24 8 47 8 23 0 49 5 57 10 15 10
-56 16 -127 11 -18 -1 -47 6 -65 15 l-33 17 50 18 50 18 -90 0 c-65 -1 -109 5
-158 19 -38 12 -95 24 -128 28 -59 7 -59 7 -42 26 16 18 28 20 123 16 101 -4
103 -4 60 9 -25 8 -66 17 -92 20 -43 5 -46 7 -37 26 10 18 18 19 108 14 l96
-6 -65 20 c-36 11 -78 18 -93 16 -24 -3 -27 0 -25 17 3 19 11 21 88 26 88 5
85 8 -27 25 -27 4 -43 12 -43 21 0 11 18 14 83 15 l82 0 -50 14 c-27 8 -62 14
-77 15 -24 0 -28 4 -28 30 l0 30 83 1 82 1 -55 14 c-30 8 -65 13 -77 10 -19
-2 -23 1 -23 20 0 24 0 24 88 18 48 -4 84 -4 81 0 -3 3 -41 13 -84 21 -43 9
-81 17 -83 19 -2 3 -1 14 3 26 6 20 12 22 63 16 32 -3 50 -3 42 1 -8 3 -30 12
-49 20 l-35 14 35 30 c21 18 26 26 12 19 -39 -18 -44 -11 -18 31 21 32 22 38
8 31 -21 -12 -56 -49 -71 -77 -10 -19 -12 -18 -23 13 -20 56 -21 28 -3 -67 15
-75 16 -104 7 -165 -13 -91 -49 -171 -103 -230 -49 -53 -35 -63 16 -12 21 21
34 28 34 20 0 -8 -23 -37 -50 -65 -60 -60 -165 -113 -270 -135 -116 -25 -192
-14 -404 55 -100 33 -231 69 -291 82 -142 28 -396 37 -516 18 -46 -8 -129 -14
-184 -14 -89 0 -106 3 -150 27 -67 36 -108 76 -138 134 -33 66 -40 105 -27
153 14 51 45 89 123 144 85 61 108 88 122 144 17 65 36 69 30 6 -5 -48 -5 -48
9 -18 9 17 15 44 16 61 0 19 6 34 15 38 12 4 15 -4 16 -42 1 -59 17 -29 18 34
1 53 27 80 36 37 15 -67 25 -67 21 -1 -2 38 -1 68 3 68 3 0 16 -24 29 -53 28
-65 29 -139 3 -190 -55 -109 -168 -215 -251 -237 -74 -21 -27 -23 62 -3 65 14
126 18 283 18 227 -1 298 -12 565 -90 217 -63 360 -79 495 -54 59 11 141 45
184 76 l25 18 -19 -28 c-10 -16 -34 -39 -54 -53 -29 -20 -32 -24 -15 -24 82 0
166 207 148 364 -27 244 -257 502 -549 618 -73 29 -89 32 -190 32 -165 -1
-322 -45 -453 -128 -23 -15 -47 -24 -52 -21 -18 11 -98 -65 -191 -181 -135
-168 -219 -232 -357 -270 -52 -15 -67 -15 -106 -4 -25 7 -46 14 -46 16 0 2 14
23 30 46 23 32 35 68 49 144 11 59 39 150 67 220 46 115 48 123 50 229 2 89 7
122 27 175 34 91 93 206 172 335 37 61 81 133 97 160 l28 50 -31 -35 c-79 -90
-254 -404 -295 -529 -15 -47 -19 -52 -28 -36 -42 73 -123 132 -219 160 -65 19
-83 17 -260 -26 -133 -32 -152 -31 -300 18 l-78 26 83 36 c159 68 295 153 510
317 67 51 326 320 352 366 14 23 15 29 5 21 -14 -11 -15 -4 -11 65 3 60 1 86
-12 108 l-15 29 6 -35 6 -35 -46 51 c-58 65 -141 103 -235 110 -67 5 -117 -9
-117 -32 0 -11 -61 -84 -70 -84 -11 0 -4 63 11 93 56 111 166 156 331 136 70
-9 96 -17 130 -41 50 -34 55 -31 13 12 -21 21 -45 33 -82 40 -28 6 -53 12 -56
14 -7 8 100 37 156 43 62 7 80 23 25 23 l-38 0 43 25 c24 14 71 34 105 45 61
19 61 19 20 17 -24 -1 -43 -2 -43 -1 0 1 18 28 39 61 22 32 58 106 81 165 49
127 75 168 157 240 59 52 80 62 178 85 13 3 5 -8 -23 -32 -23 -20 -47 -47 -54
-58 -13 -25 -15 -26 62 35 121 96 163 99 344 22z m-1084 -390 c0 -21 4 -25 23
-22 12 2 23 9 23 16 1 6 2 17 3 22 0 6 12 10 26 10 20 0 25 -5 25 -25 0 -28
24 -34 37 -10 8 13 16 12 61 -7 29 -12 52 -28 52 -35 0 -7 7 -13 15 -13 8 0
15 5 15 10 0 6 12 10 26 10 l26 0 -28 -37 c-54 -72 -163 -147 -211 -146 -18 1
-33 -3 -33 -8 0 -5 -18 -18 -41 -30 -36 -18 -45 -19 -72 -8 -24 10 -32 10 -35
1 -4 -14 -52 -16 -52 -2 0 6 -11 10 -25 10 -20 0 -25 5 -25 25 0 20 -5 25 -26
25 -21 0 -25 4 -22 23 2 14 10 22 23 22 13 0 21 -8 23 -22 3 -17 10 -23 28
-23 19 0 24 -5 24 -25 0 -18 5 -25 20 -25 27 0 27 37 -1 45 -26 9 -22 47 6 55
11 3 20 12 20 20 0 8 10 19 23 25 12 5 22 17 22 26 0 18 26 33 41 23 5 -3 9 6
9 20 0 21 -5 26 -25 26 -20 0 -25 -5 -25 -25 0 -18 -5 -25 -20 -25 -15 0 -20
-7 -20 -26 0 -21 -4 -25 -22 -22 -15 2 -24 11 -26 26 -3 18 1 22 22 22 21 0
26 5 26 25 0 18 5 25 20 25 13 0 20 7 20 18 0 10 3 22 7 25 3 4 15 7 25 7 13
0 18 -7 18 -26z m-52 -449 c93 -28 202 -134 202 -196 0 -81 -20 -117 -124
-226 -120 -126 -250 -243 -271 -243 -22 0 -84 59 -105 100 -33 64 -42 157 -25
246 20 106 82 229 145 288 56 52 87 58 178 31z m5206 -376 c126 -134 209 -264
274 -429 34 -87 50 -170 33 -170 -6 0 -11 12 -11 28 0 15 -5 34 -10 42 -7 11
-10 7 -10 -17 0 -17 -4 -35 -10 -38 -6 -4 -10 12 -10 39 0 25 -4 46 -10 46 -5
0 -10 -7 -10 -15 0 -25 -23 -65 -37 -65 -9 0 -13 16 -14 53 l-1 52 -12 -47
c-16 -69 -32 -48 -39 52 -11 165 -84 333 -216 500 -20 25 -27 38 -16 30 11 -8
23 -19 27 -25 5 -6 8 -6 8 -1 0 6 -12 23 -27 39 -23 24 -24 28 -7 19 12 -6 56
-48 98 -93z m-679 -85 c317 -171 553 -412 579 -590 4 -22 2 -52 -3 -65 -9 -23
-10 -22 -11 11 -1 19 -6 46 -10 60 -7 21 -8 18 -10 -20 -1 -25 -5 -54 -10 -65
-7 -16 -9 -13 -9 17 -1 50 -21 60 -22 11 l-1 -38 -10 33 c-15 44 -28 41 -22
-5 l4 -38 -16 38 c-20 46 -36 49 -23 5 14 -52 12 -60 -12 -48 -11 6 -22 17
-24 23 -50 170 -61 198 -110 272 -102 154 -294 340 -444 428 -44 27 -81 52
-81 57 0 19 123 -26 235 -86z m-4887 36 c-8 -32 -7 -42 6 -55 20 -21 21 -55 1
-55 -8 0 -15 -9 -15 -20 0 -22 20 -26 38 -8 9 9 12 9 12 0 0 -6 -11 -22 -25
-36 -25 -25 -34 -66 -15 -66 9 0 60 -68 60 -81 0 -3 -18 -18 -40 -33 -35 -23
-40 -24 -40 -8 0 11 -8 18 -20 19 -15 1 -20 -4 -20 -22 0 -13 5 -25 12 -27 7
-3 6 -7 -5 -11 -9 -3 -17 -2 -17 3 0 6 -9 10 -20 10 -15 0 -20 7 -20 25 0 20
-5 25 -25 25 -20 0 -25 -5 -25 -26 0 -21 -4 -25 -22 -22 -31 4 -31 42 -1 46
14 2 23 11 25 25 4 30 42 30 46 0 2 -15 10 -23 23 -23 26 0 25 36 -1 43 -26 7
-27 47 -1 54 11 3 21 14 24 25 3 11 15 22 26 25 27 7 28 43 2 43 -11 0 -22 4
-25 9 -10 16 5 41 25 41 12 0 19 7 19 20 0 13 -7 20 -19 20 -26 0 -36 31 -15
47 9 7 21 10 25 7 5 -3 9 6 9 20 0 16 6 26 14 26 11 0 12 -8 4 -40z m-1610
-125 c59 -18 109 -56 129 -100 l14 -30 -4 29 -5 29 59 -6 c98 -9 175 -66 214
-160 20 -47 20 -121 0 -137 -8 -7 -15 -17 -15 -23 0 -6 10 -1 23 11 17 17 22
34 22 72 0 28 2 50 5 50 18 -2 89 -62 112 -95 29 -43 55 -133 45 -159 -5 -13
-11 -14 -34 -5 -15 5 -53 11 -85 12 -56 2 -58 3 -58 29 0 15 -4 30 -10 33 -5
3 -7 0 -4 -8 10 -28 -22 -83 -59 -100 -42 -20 -192 -25 -254 -8 -2 1 14 17 35
37 l37 37 -35 -25 c-19 -14 -51 -33 -70 -43 -47 -24 -179 -65 -210 -65 -39 0
-74 23 -92 60 -13 27 -17 30 -18 14 0 -11 7 -29 15 -40 8 -10 15 -22 15 -26 0
-16 -125 -68 -167 -68 -106 0 -149 65 -103 155 25 49 25 57 0 27 -28 -33 -43
-94 -31 -125 10 -25 9 -25 -27 -20 -81 12 -122 98 -67 141 23 18 23 20 6 25
-52 13 -29 140 35 197 40 35 48 36 66 12 19 -27 52 -42 90 -41 l33 1 -40 9
c-72 17 -102 66 -83 135 20 74 112 126 189 106 27 -7 36 -6 33 2 -2 6 10 20
27 30 78 46 177 57 267 31z m6578 -115 c124 -123 189 -205 228 -290 l25 -53
-66 -73 c-36 -41 -87 -87 -114 -104 -53 -32 -64 -60 -26 -60 13 0 26 -2 29 -5
9 -10 -58 -133 -100 -180 -24 -28 -63 -91 -88 -142 -38 -78 -88 -143 -101
-130 -2 2 8 51 22 108 36 152 65 351 74 523 8 142 -1 436 -15 500 -4 18 -2 27
5 25 6 -2 63 -56 127 -119z m1218 -166 c96 -22 96 -22 96 -34 0 -6 -15 -8 -37
-5 -22 3 -33 1 -25 -4 10 -6 -4 -26 -52 -74 -36 -37 -71 -67 -78 -67 -12 1
-78 54 -78 64 0 3 8 7 18 10 9 3 -5 4 -31 2 -47 -4 -48 -3 -30 16 17 19 16 19
-11 9 -39 -15 -42 -14 -21 10 19 20 19 20 -9 10 -35 -14 -36 -14 -36 4 0 32
97 74 174 75 26 0 80 -7 120 -16z m-604 -14 c0 -5 16 -27 35 -49 39 -43 106
-75 178 -86 43 -6 47 -8 35 -23 -11 -14 -11 -15 7 -7 71 30 123 43 150 38 30
-6 75 -39 75 -56 0 -5 11 -18 25 -29 22 -17 62 -78 52 -78 -2 0 -19 7 -37 16
-27 14 -38 15 -72 5 -22 -7 -52 -25 -66 -39 -26 -28 -27 -24 -7 33 3 11 -1 7
-10 -8 -22 -38 -29 -113 -16 -162 8 -30 25 -51 68 -86 81 -65 132 -81 294 -88
117 -6 140 -10 173 -30 70 -44 115 -147 87 -200 -7 -13 -8 -21 -2 -21 16 0 30
35 24 58 -8 34 2 27 52 -34 55 -68 62 -92 40 -138 -25 -53 -64 -75 -187 -107
-91 -24 -130 -29 -227 -29 -128 0 -181 11 -299 61 -70 31 -86 34 -177 34 -97
0 -103 -1 -159 -35 -32 -20 -75 -58 -98 -87 -51 -66 -92 -182 -83 -232 10 -55
48 -106 97 -130 63 -30 115 -27 170 9 24 16 55 31 69 33 17 3 25 11 27 29 4
37 38 26 46 -14 16 -81 -14 -126 -106 -158 -145 -50 -288 -6 -363 113 -13 21
-18 48 -18 105 1 76 -14 78 -17 2 l-2 -35 -10 32 c-9 26 -6 47 16 117 34 111
32 130 -4 36 -16 -41 -29 -93 -29 -116 -1 -47 53 -166 93 -203 14 -14 26 -28
26 -31 0 -4 -17 -10 -37 -14 -54 -8 -156 -71 -229 -141 -62 -61 -62 -61 -93
-46 -38 18 -39 28 -3 34 15 2 -1 5 -35 6 -67 1 -89 21 -25 21 35 1 113 28 82
29 -8 0 -57 -4 -108 -9 -61 -7 -100 -7 -110 0 -14 7 -10 10 18 11 19 0 46 5
60 9 15 5 -20 7 -85 4 -111 -4 -116 -1 -35 22 l45 14 -50 -5 c-27 -2 -76 -7
-107 -10 -39 -4 -58 -3 -58 4 0 6 6 11 13 11 18 0 120 31 115 35 -1 2 -45 -6
-97 -16 -102 -22 -152 -21 -83 1 23 7 40 15 39 17 -2 2 -43 -3 -91 -10 -47 -8
-86 -12 -86 -10 0 2 25 15 55 28 30 14 55 27 55 29 0 2 -35 -7 -77 -20 -43
-13 -82 -24 -87 -24 -6 0 6 17 25 37 18 21 24 29 11 19 -41 -35 -35 -8 10 41
61 67 80 95 44 63 l-29 -25 17 33 c9 17 20 32 25 32 5 0 26 21 47 48 21 26 27
37 13 25 -14 -13 -28 -23 -32 -23 -18 0 -3 26 43 74 51 54 70 88 25 46 -16
-15 -25 -19 -25 -10 0 7 17 29 38 49 20 20 44 45 52 56 13 17 11 16 -17 -4
-47 -32 -43 -5 7 44 40 39 48 64 9 29 -22 -19 -22 -19 -14 6 4 14 17 33 29 43
15 12 16 16 4 11 -16 -6 -16 -3 1 47 14 43 27 60 68 90 l50 38 -13 -37 c-17
-49 -17 -73 1 -99 12 -17 22 -20 62 -15 27 2 87 20 135 39 123 49 181 115 222
252 18 62 20 81 7 81 -4 0 -11 -18 -14 -40 -13 -96 -103 -235 -170 -260 -17
-7 -53 -21 -79 -31 -51 -21 -84 -26 -58 -9 12 8 12 10 -5 10 -17 0 -17 2 -5
10 13 9 13 10 -1 10 -8 0 -26 -11 -39 -25 -25 -26 -51 -35 -30 -11 6 8 14 30
16 48 l5 33 -21 -25 -22 -25 5 25 c12 60 79 217 114 268 21 31 65 76 97 101
96 74 116 95 54 56 -32 -20 -58 -31 -58 -26 0 5 20 39 44 75 l44 66 -40 0 -40
0 48 33 c26 17 71 60 99 94 27 34 53 62 58 62 13 2 7 -40 -7 -45 -8 -3 -17
-13 -20 -21 -5 -13 -2 -13 20 2 l27 17 -17 -23 c-22 -32 -20 -46 3 -25 11 10
22 13 25 8 3 -6 1 -12 -6 -14 -21 -7 38 -39 81 -45 52 -7 83 1 119 32 27 22
29 30 27 79 -1 36 -13 77 -34 121 -17 37 -31 69 -31 71 0 9 47 2 85 -11 43
-16 55 -9 55 33 0 12 5 22 10 22 6 0 10 -4 10 -10z m-5919 -190 c27 -7 47 -15
44 -19 -2 -4 6 -7 18 -6 27 2 47 -4 47 -16 0 -5 -19 -6 -42 -3 -24 4 -39 3
-35 -2 25 -26 196 -23 302 6 47 13 82 20 110 23 11 1 22 5 26 9 6 10 96 17
121 10 10 -2 15 -9 11 -15 -3 -6 -1 -7 6 -3 6 4 19 2 28 -6 14 -11 16 -11 9 0
-17 28 91 -41 129 -83 38 -41 76 -113 53 -99 -5 4 -3 -5 7 -19 21 -32 18 -124
-4 -119 -12 3 -12 1 -1 -13 9 -11 10 -19 2 -27 -6 -6 -8 -16 -6 -23 3 -7 1
-16 -5 -20 -6 -3 -11 -13 -11 -21 0 -8 -12 -41 -27 -72 -15 -31 -28 -61 -30
-67 -9 -41 -12 -59 -18 -99 -4 -25 -10 -44 -14 -42 -4 3 -7 -5 -8 -17 -1 -53
-4 -66 -16 -79 -7 -7 -21 -25 -30 -39 -37 -55 -146 -85 -214 -57 -15 6 -34 12
-42 14 -7 1 -25 13 -40 26 -30 26 -76 54 -67 40 4 -7 -74 13 -134 35 -59 22
-323 21 -359 -1 -6 -4 -15 -4 -21 -1 -5 3 -19 8 -31 10 -32 6 -69 49 -72 83
-1 17 -5 28 -9 25 -5 -2 -8 5 -8 17 0 14 4 19 13 14 9 -6 9 -5 1 7 -9 11 -13
64 -5 64 1 0 4 12 6 26 5 35 45 119 57 119 6 0 8 -6 5 -14 -3 -8 3 -22 13 -31
11 -10 17 -23 14 -29 -4 -6 7 2 23 19 16 16 30 34 30 40 0 5 2 15 4 20 6 14
-33 105 -45 105 -5 0 -7 3 -4 6 3 3 -12 23 -33 44 -61 61 -78 131 -39 170 11
11 17 20 14 20 -13 0 22 34 61 58 76 48 120 55 216 32z m-751 -50 c57 -13 138
-49 144 -65 2 -7 -21 -3 -61 12 -36 13 -67 22 -69 20 -2 -2 28 -19 66 -37 49
-24 70 -39 70 -52 0 -18 -2 -17 -40 2 -21 11 -42 20 -46 20 -13 0 21 -33 58
-56 21 -14 38 -31 38 -39 0 -20 -6 -19 -42 6 -45 33 -42 17 6 -29 24 -23 46
-53 48 -67 5 -23 -5 -34 -16 -17 -2 4 -26 23 -52 42 l-49 35 22 -30 c12 -17
42 -50 67 -75 25 -24 46 -53 46 -64 0 -19 0 -19 -22 0 -36 31 -58 47 -58 41 0
-3 7 -13 16 -22 33 -33 84 -97 84 -106 0 -5 -22 2 -50 16 -27 14 -50 24 -50
21 0 -2 25 -23 55 -46 30 -23 57 -50 60 -61 3 -10 8 -29 11 -40 6 -21 4 -22
-58 -17 -153 13 -271 113 -301 258 -14 68 -47 128 -91 169 -32 30 -34 18 -3
-23 13 -17 29 -42 36 -54 12 -22 11 -23 -11 -17 -21 7 -20 4 10 -27 17 -19 32
-38 32 -43 0 -5 -9 1 -20 13 -38 41 -43 22 -6 -23 38 -46 39 -59 3 -27 -25 21
-16 2 25 -49 28 -36 28 -37 6 -42 -12 -3 -29 -2 -39 4 -10 5 -26 9 -36 9 -14
0 -12 -4 10 -18 31 -19 30 -37 -2 -36 -19 1 -20 -1 -5 -17 9 -10 13 -23 9 -28
-10 -18 -23 -12 -28 12 -2 12 -5 -19 -6 -69 -1 -114 -15 -149 -90 -228 -32
-34 -63 -70 -69 -81 -10 -18 -12 -17 -27 19 -9 21 -19 61 -22 89 -5 44 -7 48
-15 26 -19 -49 11 -139 71 -218 20 -27 22 -33 9 -28 -23 8 -23 7 7 -49 30 -56
31 -85 6 -140 -24 -52 -69 -71 -128 -55 -21 6 -65 11 -98 11 l-60 0 -18 61
c-10 33 -15 64 -12 70 11 17 25 9 25 -15 0 -37 20 -86 41 -97 26 -14 77 14 85
47 4 16 0 40 -10 63 l-16 36 24 -27 c28 -31 41 -36 32 -13 -5 13 -2 14 15 4
11 -6 24 -8 27 -4 11 11 -37 44 -79 55 -34 9 -51 7 -128 -19 -181 -60 -299
-65 -411 -17 -90 39 -121 43 -144 17 -24 -26 -16 -37 15 -21 19 11 21 10 16
-4 -8 -21 2 -20 25 1 10 9 20 14 23 12 3 -4 -32 -115 -41 -127 -6 -8 -46 11
-74 35 -23 19 -30 33 -30 62 0 51 46 121 80 122 17 1 19 3 7 6 -16 4 -16 6 3
30 11 14 20 32 20 39 0 22 18 16 43 -12 34 -40 100 -74 156 -81 49 -6 53 -4
81 28 63 72 102 113 95 102 -8 -17 4 -16 35 2 36 21 46 18 19 -5 -32 -26 -9
-26 25 1 37 29 33 73 -7 77 -16 2 -39 -4 -52 -12 -23 -15 -24 -15 -19 1 6 22
0 14 -68 -92 -26 -40 -57 -76 -69 -80 -52 -17 -167 43 -201 105 -16 29 -19 49
-15 115 6 91 9 106 32 161 25 60 64 112 104 136 26 17 31 24 19 26 -13 3 -15
8 -9 26 15 39 25 176 12 176 -6 0 -11 -10 -11 -22 0 -18 -6 -14 -30 24 -28 45
-64 78 -85 78 -6 0 -20 -7 -31 -15 -18 -14 -17 -15 11 -11 41 5 60 -7 89 -57
33 -59 42 -143 20 -191 -10 -20 -21 -36 -24 -36 -4 0 -20 -18 -35 -40 -31 -45
-40 -47 -75 -23 -25 18 -60 25 -60 12 0 -15 33 -40 61 -46 31 -6 34 -10 20
-32 -8 -12 -16 -10 -45 13 -36 27 -54 65 -41 86 6 9 10 9 16 -1 16 -27 19 -1
4 41 -28 79 -11 148 55 223 38 44 35 57 -5 25 l-28 -22 6 24 c4 14 7 35 7 48
0 29 46 76 66 68 9 -3 12 -1 9 4 -10 17 18 11 70 -15 86 -42 190 -31 271 30
21 16 35 20 45 14 23 -14 75 -10 136 10 113 39 174 44 258 22 41 -10 75 -15
75 -11 0 5 32 -2 72 -16 39 -13 73 -22 75 -21 1 2 -20 14 -49 28 l-52 24 70 5
69 6 -43 8 -43 9 22 23 c25 26 56 30 129 14z m-1168 -86 c19 -21 19 -22 -6
-49 -14 -15 -26 -33 -26 -39 0 -6 -28 -33 -61 -61 -106 -87 -190 -203 -188
-262 l0 -28 16 32 c11 22 25 33 47 37 17 3 45 17 61 31 l30 25 -30 -11 -30
-10 35 30 c23 20 28 29 15 24 l-20 -6 20 24 c11 13 25 27 30 31 21 16 -11 8
-35 -8 -14 -10 2 11 35 45 l60 62 7 -35 c6 -28 3 -44 -15 -73 -18 -31 -22 -53
-22 -115 0 -42 -1 -75 -3 -73 -7 7 -107 -27 -151 -51 -51 -28 -69 -31 -50 -7
13 15 12 15 -8 5 -29 -16 -33 -15 -33 6 -1 15 -2 15 -15 -2 -13 -17 -14 -11
-10 57 8 116 49 213 126 299 50 56 193 167 198 154 2 -6 12 -21 23 -32z m8376
30 c49 -34 69 -133 37 -193 -15 -29 -68 -61 -103 -61 -29 0 -108 92 -116 135
-8 43 20 97 62 120 36 19 92 19 120 -1z m-4576 -256 l29 -33 -17 34 -16 34 33
-7 c22 -4 49 -22 77 -50 43 -46 55 -46 26 0 -21 32 -16 36 29 22 24 -7 46 -24
63 -50 31 -45 37 -47 28 -13 -8 32 -2 32 41 -6 19 -17 35 -26 35 -20 0 7 21
-2 46 -20 l46 -31 -29 -19 c-55 -37 -126 -45 -233 -26 -91 15 -140 14 -140 -3
0 -4 -26 -17 -58 -29 -75 -28 -170 -29 -238 -3 -95 38 -90 36 -77 22 11 -11 1
-21 -54 -51 -97 -54 -142 -65 -209 -50 -30 7 -54 16 -52 21 2 4 28 28 57 54
39 33 61 44 74 40 16 -5 18 -2 12 15 -6 21 0 25 37 22 12 -2 16 3 12 13 -6 16
23 36 44 29 6 -3 12 2 12 10 0 8 18 22 40 32 39 17 41 17 61 -1 20 -18 20 -18
14 7 -9 38 19 45 45 12 l20 -26 -6 31 c-6 28 -3 32 21 38 22 5 31 1 55 -27 32
-38 38 -33 15 11 -15 29 -15 30 11 36 23 6 32 1 56 -27 l28 -34 -10 29 c-8 22
-8 31 2 38 24 14 41 8 70 -24z m-2651 -241 c80 -75 108 -129 95 -183 -4 -13
-2 -24 3 -24 25 0 18 119 -9 135 -26 16 -5 22 31 10 23 -8 54 -15 69 -15 57 0
88 -12 94 -35 3 -13 9 -31 12 -40 6 -15 4 -16 -17 -6 -23 11 -23 11 -5 -3 11
-9 23 -16 26 -16 6 0 30 -67 30 -84 0 -4 -10 -2 -22 4 -16 8 -15 5 6 -11 27
-21 63 -86 52 -96 -2 -2 -15 1 -28 7 -21 10 -21 9 4 -13 15 -14 31 -26 37 -28
5 -2 17 -21 26 -43 13 -30 13 -38 3 -34 -51 19 -60 17 -23 -6 50 -31 65 -44
65 -57 0 -5 -16 -3 -35 5 -48 20 -44 12 10 -20 25 -14 52 -39 60 -55 19 -36
19 -40 -2 -33 -10 4 -5 -3 11 -14 17 -12 36 -33 44 -48 l14 -27 -38 6 -39 6
30 -14 c17 -8 36 -14 42 -15 14 0 69 -78 61 -86 -3 -2 -25 0 -49 5 -64 15 -92
13 -54 -3 27 -12 20 -13 -65 -10 -63 2 -87 1 -70 -5 19 -7 5 -10 -55 -11 -99
-2 -156 -17 -80 -20 l50 -2 -40 -9 c-22 -4 -76 -14 -120 -20 -54 -9 -72 -15
-56 -19 20 -5 16 -8 -30 -27 -30 -12 -81 -29 -114 -38 -47 -14 -56 -19 -40
-25 23 -9 21 -10 -80 -49 -34 -14 -43 -20 -27 -20 31 -1 19 -19 -25 -37 -18
-8 -31 -18 -29 -23 3 -5 -3 -16 -14 -26 -19 -18 -20 -17 -21 11 l-1 29 -11
-34 c-10 -33 -11 -33 -59 -29 -62 6 -120 45 -157 105 -27 43 -28 48 -13 60 15
11 12 12 -21 13 -48 0 -111 32 -134 67 -11 16 -20 55 -23 95 -5 61 -3 68 13
68 13 0 17 -5 12 -19 -4 -14 4 -10 30 14 19 19 35 38 35 44 0 6 9 11 21 11 13
0 19 -5 16 -12 -19 -47 -19 -53 2 -28 11 14 21 28 21 33 0 4 14 7 30 7 27 0
30 -2 20 -19 -17 -33 -11 -48 8 -18 9 15 25 27 34 27 21 0 23 -12 7 -43 -8
-17 -5 -16 13 6 13 15 29 27 36 27 15 0 15 -5 1 -33 -6 -12 14 3 44 35 60 61
77 101 77 183 0 36 -7 61 -25 90 -23 37 -34 105 -17 105 4 0 15 -17 24 -38 31
-67 51 -83 28 -23 -12 30 -25 62 -30 71 -7 13 -5 22 5 30 19 16 17 18 39 -53
10 -32 19 -57 21 -55 2 1 -3 35 -9 75 -9 50 -10 75 -2 83 17 17 26 11 27 -17
1 -35 6 -21 14 38 3 26 12 55 20 65 12 18 14 16 24 -16 10 -32 10 -31 7 24 -2
51 -1 57 11 41 17 -25 17 -8 -4 54 -12 39 -13 55 -5 63 9 9 12 7 12 -8 0 -11
7 -29 16 -40 15 -19 16 -19 9 1 -20 58 -17 91 10 123 15 18 34 32 43 32 10 0
51 -33 93 -73z m3247 -87 c11 -19 10 -20 -25 -20 -43 0 -39 -9 9 -17 18 -2 40
-11 48 -19 13 -14 12 -14 -15 -7 -16 4 -59 8 -95 7 -51 0 -75 -6 -111 -27 -26
-14 -50 -23 -54 -19 -5 4 -5 2 -2 -4 3 -6 -3 -18 -14 -27 -10 -9 -19 -14 -19
-11 0 10 -47 -61 -66 -99 l-16 -32 31 29 c17 16 33 38 37 48 3 10 10 15 16 12
6 -4 8 -2 5 3 -4 6 0 16 8 23 8 7 15 9 15 5 0 -4 14 7 32 24 18 17 38 29 45
27 7 -3 13 -1 13 4 0 22 97 33 161 18 25 -6 51 -20 61 -33 16 -22 16 -22 -14
-23 -37 -1 -57 -17 -25 -20 39 -4 56 -8 63 -15 4 -4 3 -7 -2 -8 -5 0 -18 -2
-29 -4 -10 -2 -24 0 -30 5 -6 5 -10 -2 -10 -20 -1 -19 3 -26 10 -21 12 10 70
9 81 -2 4 -4 3 -7 -2 -8 -55 -5 -96 -18 -90 -28 3 -4 25 -6 50 -5 26 1 46 -2
46 -7 0 -8 -14 -13 -32 -10 -4 0 -19 -6 -35 -14 l-28 -15 35 -1 c19 -1 43 -1
52 0 9 1 15 -4 14 -13 -3 -22 -7 -24 -56 -29 -51 -4 -61 -20 -15 -23 59 -3 65
-4 65 -14 0 -5 -8 -10 -17 -10 -17 -1 -17 -2 0 -14 11 -9 14 -17 8 -20 -6 -4
-18 2 -28 13 -9 11 -21 17 -27 14 -5 -4 -30 -8 -55 -9 -71 -4 -95 -10 -140
-38 -23 -15 -47 -24 -53 -20 -6 4 -8 3 -5 -3 12 -19 -85 -89 -105 -77 -6 4 -8
3 -5 -3 14 -23 -100 -35 -178 -19 -11 3 -26 5 -33 5 -7 1 -10 6 -6 13 4 6 3 8
-4 4 -11 -7 -76 27 -67 36 3 2 -2 5 -10 5 -13 0 -13 -3 -1 -22 14 -21 13 -22
-9 -17 -13 2 -33 13 -44 23 -12 11 -21 17 -21 13 0 -4 -9 1 -20 11 -11 10 -17
22 -13 28 3 5 1 7 -4 4 -6 -4 -18 2 -28 13 -10 11 -15 20 -11 20 4 0 -3 10
-14 22 -11 12 -18 28 -16 34 2 6 0 16 -6 22 -30 30 5 151 39 138 8 -3 11 -1 8
4 -15 25 94 41 145 22 14 -5 28 -9 31 -8 4 0 16 -8 28 -18 17 -16 19 -22 8
-35 -10 -14 -10 -14 4 -4 13 11 19 9 34 -7 10 -11 15 -20 12 -20 -4 0 0 -8 8
-17 8 -10 28 -37 45 -61 17 -24 38 -46 48 -49 9 -3 26 -13 36 -22 11 -9 16
-10 12 -3 -8 14 10 17 19 3 6 -11 58 13 53 25 -2 4 -19 7 -38 5 l-35 -3 24 19
c19 15 21 22 11 28 -8 5 -11 4 -7 -2 4 -6 -3 -13 -16 -17 -34 -9 -67 -7 -67 4
0 6 6 10 13 10 8 0 24 11 36 24 24 26 13 29 -26 8 -49 -27 -81 -4 -34 24 31
19 33 41 2 24 -10 -5 -21 -6 -25 -3 -3 3 -6 1 -6 -6 0 -7 -5 -9 -11 -5 -7 4 6
24 33 52 41 44 41 45 5 14 -44 -38 -58 -39 -75 -11 -13 20 -10 26 35 72 83 87
117 118 157 144 34 22 48 28 93 37 7 1 16 5 19 9 4 4 44 7 88 7 70 0 83 -3 94
-20z m-1517 -239 c-14 -25 -71 -76 -71 -63 0 7 -9 12 -20 12 -23 0 -26 -10 -8
-28 9 -9 9 -12 -2 -13 -8 -1 -24 -2 -35 -3 -13 0 -20 -8 -20 -21 0 -15 -8 -21
-28 -23 -24 -3 -28 -7 -23 -26 5 -20 2 -23 -18 -19 -20 4 -25 0 -28 -18 -2
-16 -11 -25 -25 -27 -14 -2 -23 -11 -25 -25 -4 -30 -42 -30 -46 1 -3 18 1 22
22 22 21 0 26 5 26 25 0 34 -47 37 -52 3 -4 -30 -43 -32 -43 -3 0 13 8 21 23
23 16 3 22 10 22 28 0 19 5 24 25 24 20 0 25 -5 25 -25 0 -18 5 -25 20 -25 14
0 20 7 20 24 0 16 -5 23 -17 22 -10 0 -22 9 -27 21 -6 12 -18 24 -28 26 -10 3
-18 14 -18 26 0 31 -47 30 -52 -1 -2 -15 -10 -23 -23 -23 -13 0 -21 8 -23 23
-4 28 -42 31 -42 3 0 -20 -25 -35 -41 -25 -5 3 -9 14 -9 25 0 14 7 19 25 19
14 0 25 5 25 10 0 6 9 10 20 10 11 0 20 -4 20 -10 0 -15 40 -12 56 5 17 17 44
20 44 5 0 -5 10 -10 21 -10 17 0 20 5 17 25 -3 14 -3 25 -1 25 7 0 58 -34 64
-44 4 -5 23 -5 48 1 24 7 43 7 47 2 8 -14 34 -11 34 4 0 17 102 56 117 44 8
-6 9 -15 4 -26z m5076 -12 c15 -6 28 -9 29 -7 0 2 8 -3 17 -11 9 -7 14 -18 10
-24 -4 -6 -1 -7 6 -3 7 5 21 0 31 -9 19 -17 46 -82 42 -98 -1 -5 2 -6 8 -2 5
3 10 2 10 -4 0 -17 44 -41 115 -61 98 -28 145 -82 145 -166 0 -53 -21 -94 -51
-100 -8 -2 -24 -5 -36 -8 -24 -5 -51 12 -53 34 -5 34 0 51 13 44 8 -6 8 -3 -1
9 -8 9 -10 22 -6 29 8 12 13 80 6 73 -5 -5 -40 29 -36 35 1 3 -32 5 -74 4 -91
-1 -128 11 -109 35 11 14 10 14 -6 2 -21 -16 -29 -11 -31 22 0 14 -4 23 -8 21
-4 -3 -14 8 -22 24 -19 37 -40 54 -89 72 -22 8 -42 22 -44 30 -4 13 -3 13 7 0
10 -13 11 -13 8 0 -3 8 -15 17 -29 20 -23 6 -23 6 -3 12 39 10 129 4 127 -9
-2 -7 3 -10 11 -7 16 6 79 -63 70 -78 -4 -7 -2 -8 4 -4 8 4 16 -3 22 -18 12
-33 16 -33 15 3 0 16 -3 27 -7 24 -5 -2 -8 0 -8 6 0 18 -59 78 -90 91 -16 7
-30 16 -30 21 0 11 3 11 37 -2z m-7484 -306 c9 -27 18 -64 19 -83 3 -35 3 -35
-43 -38 -58 -4 -69 9 -76 88 -6 62 0 73 23 43 12 -16 12 -16 7 5 -4 16 -1 22
10 22 8 0 18 -6 20 -12 3 -8 6 -6 6 5 2 31 17 18 34 -30z m-240 -5 l4 -23 8
23 c4 12 11 22 16 22 6 0 14 -10 19 -22 l9 -23 0 23 c1 13 7 22 16 22 12 0 15
-14 15 -65 0 -53 -3 -66 -19 -75 -22 -11 -71 -13 -95 -4 -17 7 -21 55 -10 113
7 36 31 41 37 9z m1772 -227 c-11 -10 -83 -72 -160 -137 -102 -86 -140 -123
-138 -138 1 -12 10 -51 21 -88 26 -85 42 -217 42 -342 l0 -99 -37 7 c-135 23
-211 28 -297 17 -168 -22 -276 -81 -433 -237 -103 -102 -118 -110 -82 -41 17
33 -1 13 -27 -30 -29 -47 -29 -43 -4 102 40 232 23 333 -72 440 -52 57 -52 58
-23 52 27 -6 28 -5 8 5 -32 16 -29 26 10 31 24 3 21 4 -15 5 -27 1 -48 5 -48
10 0 16 179 183 255 238 105 75 204 120 344 155 178 46 332 62 498 55 95 -5
143 -4 148 3 3 6 11 11 18 11 6 0 3 -8 -8 -19z m4497 -16 c30 -20 49 -25 102
-25 37 0 66 4 66 8 0 5 -35 16 -77 25 l-78 16 130 -5 c238 -10 460 -50 613
-112 102 -42 230 -131 343 -240 55 -52 99 -98 99 -102 0 -5 -8 -11 -17 -13
-14 -4 -12 -5 5 -6 12 0 22 -2 22 -4 0 -2 -26 -30 -58 -62 -32 -33 -69 -82
-82 -110 -23 -46 -25 -60 -23 -185 1 -101 8 -162 26 -245 14 -60 24 -111 22
-113 -1 -2 -26 26 -54 62 -68 85 -195 202 -265 245 -164 98 -310 118 -560 75
l-39 -7 6 144 c6 151 30 334 49 382 8 20 8 31 1 35 -18 11 -303 254 -303 258
0 12 41 0 72 -21z m-3045 6 c36 -1 40 -3 36 -21 -4 -14 0 -20 11 -20 9 0 16 8
16 19 0 14 6 17 28 13 15 -2 32 -11 39 -20 10 -12 15 -13 28 -2 12 10 24 11
53 2 20 -6 58 -14 85 -17 30 -4 55 -14 68 -28 15 -16 22 -18 28 -9 9 15 99
-12 118 -35 7 -9 19 -13 27 -10 21 8 110 -28 114 -47 4 -18 14 -20 28 -6 7 7
40 8 98 2 48 -4 89 -4 92 0 7 11 62 10 69 -2 7 -12 35 -1 35 14 0 15 98 48
106 35 10 -16 24 -9 34 16 5 14 16 25 25 25 8 0 15 5 15 10 0 15 68 12 73 -2
3 -9 8 -10 16 -2 8 7 28 7 66 1 48 -9 55 -13 55 -34 0 -26 27 -32 36 -8 6 15
43 12 54 -5 3 -4 14 -9 25 -11 12 -3 21 -14 23 -27 4 -24 37 -31 45 -9 4 10 7
10 18 0 8 -9 9 -13 2 -13 -7 0 -13 -10 -15 -22 -2 -17 -10 -23 -28 -23 -18 0
-26 6 -28 23 -5 32 -42 30 -42 -2 0 -18 -6 -25 -22 -28 -13 -2 -24 -9 -24 -15
-1 -7 -2 -17 -3 -23 0 -5 -12 -10 -26 -10 -16 0 -23 -4 -19 -13 7 -18 -22 -41
-41 -33 -8 3 -15 15 -15 26 0 29 -38 27 -42 -2 -2 -15 -10 -23 -23 -23 -13 0
-21 8 -23 23 -4 29 -42 31 -42 2 0 -13 7 -20 20 -20 15 0 20 -7 20 -25 0 -19
5 -25 23 -25 17 0 19 -2 7 -10 -9 -6 -18 -6 -24 0 -13 13 -56 13 -56 0 0 -5
-9 -10 -20 -10 -11 0 -20 5 -20 10 0 6 -11 10 -25 10 -14 0 -25 -4 -25 -10 0
-5 -11 -10 -25 -10 -14 0 -25 5 -25 10 0 6 -11 10 -25 10 -14 0 -25 -4 -25
-10 0 -5 -11 -10 -25 -10 -14 0 -25 5 -25 12 0 6 -3 8 -6 5 -10 -10 -44 12
-44 28 0 8 -9 15 -20 15 -13 0 -20 -7 -20 -20 0 -15 7 -20 25 -20 14 0 25 -4
25 -10 0 -5 -11 -10 -25 -10 -14 0 -25 4 -25 9 0 5 -11 9 -25 9 -14 0 -25 -4
-25 -9 0 -5 -11 -9 -25 -9 -14 0 -25 4 -25 8 0 4 -9 8 -20 8 -11 0 -20 -4 -20
-8 0 -4 -11 -8 -25 -8 -14 0 -25 4 -25 9 0 5 -11 9 -25 9 -14 0 -25 -4 -25 -9
0 -13 -27 -11 -50 3 -16 10 -24 10 -40 0 -12 -7 -26 -9 -33 -5 -7 4 -43 8 -80
9 -38 1 -73 6 -79 12 -16 16 -2 42 22 42 13 0 20 7 20 20 0 29 -38 27 -42 -2
-2 -15 -10 -23 -23 -23 -11 0 -24 10 -30 23 -12 28 -45 30 -45 2 0 -15 7 -20
25 -20 20 0 25 -5 25 -25 0 -19 5 -25 22 -25 12 0 19 -2 16 -5 -3 -3 -24 -3
-47 1 -30 5 -41 11 -41 25 0 11 -9 19 -22 21 -15 2 -24 11 -26 26 -2 14 -10
22 -22 22 -12 0 -20 -8 -22 -22 -2 -15 -10 -23 -23 -23 -13 0 -21 8 -23 23 -3
16 -10 22 -28 22 -22 0 -25 4 -22 28 2 19 9 28 26 30 29 4 26 37 -3 37 -13 0
-21 -8 -23 -22 -5 -35 -52 -32 -52 2 0 33 -37 35 -42 3 -2 -15 -11 -24 -25
-26 -14 -2 -23 -11 -25 -25 -2 -14 -10 -22 -23 -22 -13 0 -21 8 -23 22 -2 14
-11 23 -25 25 -14 2 -23 11 -25 25 -2 14 -11 23 -25 25 -30 4 -30 42 1 46 18
3 22 -1 22 -22 0 -21 5 -26 25 -26 33 0 35 37 3 42 -15 2 -24 11 -26 26 -4 29
-42 31 -42 1 0 -16 -5 -20 -27 -17 -34 4 -37 29 -5 43 28 12 30 45 2 45 -15 0
-20 -7 -20 -25 0 -20 -5 -25 -25 -25 -20 0 -25 5 -25 25 0 20 -5 25 -25 25
-14 0 -25 5 -25 10 0 6 4 10 9 10 5 0 16 3 25 6 11 4 16 1 16 -11 0 -11 7 -15
23 -13 14 2 21 9 19 19 -2 12 7 18 27 21 25 4 31 1 33 -16 4 -27 33 -28 33 -1
0 16 8 21 45 25 25 3 65 4 90 3 25 -1 64 -2 87 -2z m-1481 -67 c-3 -9 -6 -58
-6 -110 0 -86 -2 -95 -17 -90 -10 3 -58 8 -108 12 -49 3 -92 8 -95 11 -5 5 81
83 92 83 4 0 9 -19 11 -42 3 -42 4 -42 5 8 1 31 8 56 17 64 12 10 15 2 18 -52
l3 -63 2 68 c2 62 4 70 35 97 36 33 52 38 43 14z m614 -278 c1279 -101 2217
-99 3395 5 240 21 664 66 703 74 12 3 22 2 22 -2 0 -5 -28 -16 -61 -26 -34
-10 -59 -20 -56 -24 3 -3 27 2 53 11 26 9 49 14 51 13 6 -6 -38 -332 -45 -335
-4 -1 -25 -11 -47 -22 -38 -19 -29 -20 33 -4 19 5 22 2 22 -20 0 -21 -10 -31
-57 -56 -32 -17 -47 -28 -33 -24 14 4 37 13 52 20 38 19 38 19 38 -31 0 -41
-3 -46 -40 -67 -46 -26 -55 -46 -10 -23 43 22 48 20 52 -36 l3 -50 -57 -32
c-32 -17 -58 -35 -58 -40 0 -7 34 7 91 38 l26 14 13 -57 c7 -31 19 -70 27 -85
8 -16 13 -30 11 -32 -10 -10 -721 -78 -1088 -105 -557 -40 -901 -52 -1435 -52
-699 1 -1331 28 -2110 92 -388 32 -365 29 -353 55 9 19 16 22 52 19 39 -3 40
-3 8 5 -18 5 -35 11 -38 14 -9 9 8 56 19 52 36 -11 77 -13 77 -5 0 5 -18 13
-40 16 -35 6 -40 10 -40 33 0 45 13 54 66 47 33 -4 43 -3 29 3 -11 5 -35 10
-54 10 l-34 1 7 46 c3 26 6 53 6 60 0 10 7 11 31 2 16 -6 32 -8 35 -5 3 3 -11
10 -30 17 -30 10 -36 16 -36 41 0 34 0 33 64 14 27 -8 51 -13 53 -11 4 4 -92
46 -106 46 -6 0 -11 21 -11 50 l0 51 53 -6 c36 -4 46 -2 32 4 -11 5 -34 10
-51 10 -30 1 -32 4 -36 42 -2 22 -2 42 0 44 2 1 19 -1 38 -7 58 -16 63 -3 7
16 -36 12 -53 23 -53 34 0 9 -3 27 -6 40 -6 20 -4 22 17 18 13 -3 42 -7 64
-10 35 -4 32 -2 -20 15 -68 22 -70 24 -79 62 -6 24 -4 28 11 23 10 -3 36 -7
58 -11 l40 -5 -35 14 c-19 8 -45 15 -58 15 -15 1 -26 10 -32 27 -20 52 -27 51
258 22 147 -15 413 -38 592 -52z"/>
<path d="M4888 4415 c-154 -39 -272 -146 -324 -292 -31 -90 -33 -200 -3 -281
12 -31 22 -65 22 -76 1 -10 17 -28 37 -41 19 -12 86 -54 148 -93 110 -70 141
-85 126 -61 -5 8 3 10 27 6 144 -26 259 -12 354 43 53 30 129 106 120 120 -2
4 2 28 10 55 18 57 20 213 4 270 -6 22 -27 74 -47 115 -41 88 -131 184 -205
219 -61 30 -187 37 -269 16z m272 -41 c104 -57 196 -189 222 -320 7 -33 12
-100 13 -149 0 -84 -3 -96 -35 -160 -30 -60 -43 -75 -90 -103 -76 -45 -120
-56 -225 -56 -119 0 -206 27 -326 102 -86 53 -97 64 -124 118 -28 55 -30 67
-30 169 0 105 2 114 33 177 85 173 237 263 428 254 66 -3 92 -9 134 -32z"/>
<path d="M5207 4013 c-44 -12 -63 -117 -27 -153 28 -28 82 -26 117 4 35 30 39
95 8 126 -21 20 -68 32 -98 23z"/>
<path d="M9035 3101 c-90 -41 -148 -156 -125 -251 12 -51 66 -124 100 -135 28
-9 25 -22 -6 -29 -15 -4 -24 -9 -22 -12 3 -2 53 7 111 21 88 21 113 32 144 60
20 19 41 32 45 29 12 -8 28 42 28 87 0 24 4 38 10 34 24 -15 1 53 -37 108 -15
21 -46 50 -70 64 -24 14 -43 27 -43 29 0 3 17 3 38 0 29 -4 32 -4 12 3 -45 16
-142 12 -185 -8z m141 -17 c17 -8 47 -32 68 -53 29 -30 39 -50 48 -98 10 -56
9 -63 -13 -104 -45 -82 -188 -141 -255 -106 -38 20 -80 65 -93 100 -27 70 6
199 59 237 68 49 120 55 186 24z"/>
<path d="M3692 3001 c-24 -9 -49 -26 -56 -39 -7 -12 -16 -19 -20 -15 -4 4 -6
3 -5 -2 2 -5 -3 -26 -10 -45 -31 -82 -31 -188 0 -216 13 -12 19 -12 25 -3 4 8
3 10 -4 5 -24 -15 -12 40 16 69 15 16 27 32 27 35 2 19 18 50 24 46 4 -3 7 4
7 14 0 11 -1 18 -2 17 -1 -1 -16 -19 -33 -41 -17 -21 -31 -35 -31 -31 0 10 41
86 60 109 13 17 13 18 0 11 -8 -4 -24 -15 -35 -24 -19 -15 -19 -15 -5 4 8 11
30 35 49 53 l34 34 20 -32 c23 -36 31 -33 22 9 -4 17 -15 33 -26 36 -11 4 -17
11 -14 16 4 5 5 9 3 8 -2 -1 -23 -8 -46 -18z"/>
<path d="M1869 3103 c-23 -4 -76 -29 -222 -105 -30 -17 -40 -18 -52 -8 -9 7
-19 10 -23 6 -13 -13 32 -37 59 -32 24 5 25 3 26 -43 0 -26 6 -58 13 -71 8
-14 8 -20 1 -16 -6 4 -11 0 -11 -8 0 -19 55 -83 84 -98 19 -9 18 -7 -4 18 -49
56 -65 77 -51 69 11 -6 13 -4 7 11 -13 32 -23 113 -19 139 3 13 13 30 22 38
27 23 153 75 199 82 49 8 125 -9 143 -32 21 -25 24 -158 4 -208 -24 -63 -84
-98 -170 -99 -53 -1 -69 4 -114 32 -61 38 -71 40 -45 11 29 -34 94 -58 154
-60 50 -1 52 -2 20 -9 -33 -7 -32 -7 16 -9 32 -1 57 5 70 15 18 15 18 15 -11
9 -24 -4 -21 0 20 22 35 20 56 40 70 68 11 22 23 42 26 45 3 3 9 12 13 20 3 8
4 -5 1 -30 -4 -37 -3 -42 7 -26 6 11 12 46 12 78 1 50 3 56 13 41 19 -25 16 2
-4 44 -25 53 -111 106 -176 109 -29 1 -64 0 -78 -3z"/>
<path d="M3499 1337 c0 -1 -3 -23 -6 -49 -5 -50 -6 -50 61 -60 22 -3 22 10 10
-269 l-6 -146 68 -6 c37 -4 69 -5 72 -3 2 2 7 93 12 202 5 110 9 200 10 202 0
1 18 2 40 2 38 0 40 2 41 30 1 17 2 38 3 48 1 15 -15 19 -114 29 -63 6 -132
14 -152 16 -21 3 -38 4 -39 4z m98 -27 c8 0 11 -4 8 -10 -7 -12 -8 -12 83 -14
73 -2 113 -20 98 -45 -9 -15 -53 -14 -62 1 -5 8 -11 5 -20 -7 -8 -10 -17 -15
-21 -11 -4 4 -1 11 7 16 9 6 10 10 3 10 -17 0 -26 -18 -17 -32 11 -18 12 -48
2 -54 -4 -3 -8 -10 -8 -15 0 -6 5 -7 12 -3 8 5 8 3 2 -7 -5 -8 -9 -63 -9 -124
0 -109 0 -109 -24 -109 -21 0 -24 5 -27 37 -2 33 0 36 10 21 13 -18 37 -12 35
9 0 9 -2 9 -6 0 -2 -7 -9 -13 -15 -13 -6 0 -8 7 -4 15 3 8 0 14 -7 12 -8 -1
-12 16 -12 56 0 59 -14 82 -16 25 -1 -18 -2 -53 -3 -78 -1 -25 2 -49 8 -53 8
-6 7 -10 -2 -14 -10 -4 -7 -12 10 -31 13 -14 18 -23 13 -19 -6 3 -11 -2 -11
-12 0 -12 7 -18 21 -17 12 1 20 8 20 18 0 9 3 19 6 22 3 3 5 -7 5 -22 0 -26
-3 -28 -43 -29 -33 -2 -45 2 -50 14 -4 9 -2 18 3 20 6 2 8 41 6 95 -5 111 6
227 19 207 5 -8 6 -21 3 -31 -2 -9 0 -19 6 -23 5 -3 11 0 11 7 1 7 2 20 3 28
0 8 8 14 17 14 23 -2 19 32 -6 51 -20 15 -20 16 3 31 12 9 22 22 22 28 0 6 -5
4 -11 -4 -7 -11 -12 -12 -15 -3 -4 8 -10 7 -23 -5 -9 -9 -13 -20 -9 -23 5 -3
11 -18 14 -34 4 -25 3 -27 -10 -15 -9 7 -13 16 -11 21 7 11 -33 51 -45 44 -5
-3 -11 -1 -15 5 -4 6 -11 8 -16 5 -5 -4 -9 8 -9 26 0 30 1 31 31 25 17 -3 38
-6 46 -6z"/>
<path d="M7233 1313 c-29 -2 -53 -7 -53 -11 3 -58 39 -375 43 -379 3 -3 28 -1
54 3 l48 9 3 193 2 192 -22 -2 c-13 -1 -47 -3 -75 -5z m72 -46 c-1 -10 -8 -23
-16 -28 -12 -8 -12 -11 2 -19 19 -11 18 -48 -2 -61 -12 -8 -12 -10 1 -19 12
-8 12 -10 1 -10 -11 0 -11 -3 0 -17 12 -14 12 -16 -1 -11 -8 3 -14 12 -14 21
1 9 -3 14 -9 10 -5 -3 -7 -2 -4 3 3 5 -3 10 -14 10 -18 0 -18 -2 -5 -12 17
-12 22 -29 6 -19 -5 3 -10 1 -10 -4 0 -6 5 -12 10 -12 6 -1 15 -3 20 -4 6 -1
15 -3 20 -4 6 0 10 -6 10 -11 0 -6 -6 -10 -12 -9 -7 1 -21 -1 -31 -6 -15 -6
-16 -10 -5 -17 11 -8 11 -10 -1 -15 -11 -5 -11 -7 0 -14 12 -8 11 -11 -1 -19
-9 -6 -10 -10 -3 -10 15 0 26 17 27 43 1 21 26 38 26 17 0 -6 -4 -8 -10 -5 -5
3 -10 1 -10 -4 0 -6 6 -11 13 -11 8 0 7 -4 -3 -10 -12 -8 -13 -12 -2 -19 11
-7 11 -9 -2 -14 -9 -4 -16 -12 -16 -19 0 -9 3 -9 10 2 5 8 12 11 16 7 11 -10
1 -17 -32 -23 -21 -3 -25 -2 -14 5 13 9 13 12 -2 23 -14 10 -18 33 -20 113 -2
55 -7 103 -11 106 -5 3 -11 25 -14 48 l-6 42 55 -3 c45 -3 54 -6 53 -21z"/>
<path d="M4002 1290 c-44 -10 -80 -45 -92 -89 -16 -59 -13 -337 5 -370 31 -61
173 -93 244 -57 60 32 66 53 66 253 0 180 0 182 -25 208 -14 15 -36 33 -50 40
-34 18 -108 25 -148 15z m26 -32 c9 -9 12 -9 12 3 0 12 2 12 10 -1 9 -13 11
-13 20 0 5 8 10 10 10 4 0 -7 8 -11 18 -10 11 1 16 -5 14 -16 -1 -9 7 -22 18
-28 11 -6 20 -16 20 -22 0 -7 -17 4 -37 23 -41 37 -61 42 -87 20 -9 -8 -16 -9
-16 -3 0 6 6 13 13 15 9 4 9 6 0 6 -21 2 -26 -22 -8 -36 11 -7 14 -13 8 -13
-7 0 -10 -15 -8 -40 2 -22 -1 -38 -6 -35 -4 3 -6 12 -3 19 3 8 1 16 -3 19 -5
3 -9 -17 -9 -44 -1 -27 3 -44 7 -37 4 6 5 16 2 22 -3 5 -1 6 6 2 6 -4 8 -12 4
-19 -4 -6 -7 -25 -8 -41 -1 -16 -8 -32 -16 -34 -11 -3 -11 -1 1 8 13 10 13 11
0 7 -20 -5 -19 -32 1 -31 12 1 15 -12 14 -78 0 -85 6 -97 49 -102 15 -1 26 -6
26 -9 0 -4 0 -11 0 -17 0 -17 -57 -11 -71 7 -13 15 -12 15 11 4 23 -11 23 -11
7 3 -11 8 -25 12 -33 9 -8 -3 -14 0 -14 6 0 6 4 11 8 11 4 0 8 9 9 20 2 20
-16 29 -18 10 -1 -5 -3 -14 -4 -20 -1 -5 -3 -15 -4 -20 -1 -7 -6 -6 -14 1 -11
11 -10 16 5 31 11 11 15 24 11 35 -6 15 -4 16 8 6 12 -10 15 -8 15 7 0 13 -5
16 -16 11 -8 -3 -24 -6 -35 -6 -18 0 -20 7 -19 80 0 44 3 109 6 145 4 36 7 70
7 76 2 20 42 64 60 64 9 0 22 -5 29 -12z m54 -229 c-3 -168 -9 -206 -33 -182
-13 13 -9 331 4 351 5 7 14 11 20 9 9 -3 11 -53 9 -178z m98 148 c13 9 20 12
17 6 -4 -6 -4 -13 0 -16 5 -2 2 -2 -4 -1 -19 5 -16 -14 5 -25 9 -6 12 -11 7
-11 -7 0 -10 -41 -10 -111 0 -61 -2 -112 -5 -114 -3 -2 -12 0 -20 6 -12 7 -12
9 -1 9 11 0 11 3 0 17 -12 14 -12 16 2 11 12 -5 15 1 15 22 0 20 -4 26 -14 23
-11 -5 -11 -7 0 -15 10 -7 9 -10 -5 -19 -9 -6 -15 -15 -11 -20 3 -5 0 -16 -6
-24 -6 -8 -8 -20 -4 -26 5 -8 2 -10 -7 -7 -10 4 -15 -1 -16 -14 -2 -17 0 -18
14 -6 14 11 16 11 10 -4 -3 -10 -1 -20 5 -24 7 -4 8 -3 4 4 -5 8 -1 10 11 6
15 -5 16 -4 3 6 -12 9 -12 13 -2 17 10 4 9 8 -5 18 -10 7 -15 16 -12 20 4 3
13 -1 22 -9 8 -8 18 -12 23 -8 5 4 3 0 -4 -9 -7 -9 -11 -21 -10 -25 5 -16 -35
-52 -50 -46 -11 4 -13 2 -7 -8 5 -9 4 -11 -3 -6 -7 4 -12 2 -12 -4 0 -6 -4 -9
-10 -5 -5 3 -2 13 8 24 12 12 21 15 30 8 6 -5 12 -5 12 -1 0 5 -9 15 -21 22
-15 10 -19 10 -14 1 5 -8 4 -10 -3 -5 -8 5 -9 13 -2 25 5 10 7 21 3 24 -3 4 0
14 8 24 8 9 9 14 4 11 -7 -4 -10 20 -10 67 0 46 4 71 10 67 6 -3 4 2 -4 11 -9
12 -10 17 -2 17 7 0 9 5 4 13 -10 16 -10 38 -1 58 4 9 2 22 -5 29 -7 8 -2 7
14 -3 24 -14 28 -14 49 0z"/>
<path d="M6806 1267 c-71 -40 -78 -68 -71 -252 8 -178 18 -215 69 -242 71 -38
195 -12 240 50 26 35 32 132 18 291 -9 108 -10 110 -46 143 -33 31 -41 33
-103 33 -52 0 -77 -6 -107 -23z m84 -7 c5 8 10 10 10 5 0 -6 9 -11 20 -11 11
0 20 5 20 10 0 5 8 2 18 -7 10 -10 22 -14 26 -10 4 4 4 0 0 -10 -3 -10 -1 -17
5 -17 6 0 11 5 11 10 0 6 4 10 10 10 5 0 10 -10 10 -22 0 -13 1 -33 1 -45 0
-13 5 -23 12 -23 6 0 2 -7 -9 -15 -18 -14 -18 -16 -1 -29 14 -10 15 -15 5 -19
-10 -4 -10 -8 2 -17 13 -10 13 -11 0 -7 -8 2 -14 11 -14 20 1 9 -3 14 -9 10
-6 -4 -7 -1 -2 7 6 9 4 11 -5 5 -8 -5 -18 -1 -27 11 -13 17 -14 17 -8 -11 13
-59 11 -188 -3 -193 -11 -3 -13 20 -10 112 2 64 0 116 -4 116 -5 0 -8 5 -8 11
0 5 5 7 10 4 6 -3 10 -1 10 4 0 6 -6 11 -12 12 -10 0 -10 2 0 6 11 4 10 8 -2
22 -15 17 -5 53 11 38 4 -5 2 -12 -6 -16 -10 -6 -9 -10 4 -15 9 -3 15 -12 12
-20 -7 -18 18 -54 30 -43 4 5 8 23 9 41 1 28 -2 33 -22 30 -15 -1 -21 2 -18
11 8 20 -15 29 -33 13 -13 -10 -15 -10 -9 0 6 9 1 12 -17 8 -32 -6 -83 -56
-67 -66 8 -5 6 -9 -6 -14 -10 -4 -15 -4 -12 0 4 4 3 16 -3 27 -9 15 -8 18 2
12 8 -5 10 -4 5 3 -4 8 -2 10 7 6 19 -7 33 14 18 29 -7 7 -17 3 -35 -16 -14
-15 -20 -27 -14 -27 7 0 -1 -13 -17 -30 -16 -16 -24 -30 -19 -30 5 0 15 9 22
20 7 11 17 20 24 20 6 0 1 -11 -11 -24 -19 -20 -20 -24 -5 -23 9 1 19 -5 22
-13 5 -13 3 -13 -12 -1 -16 13 -17 13 -14 -1 3 -16 1 -18 -24 -18 -9 0 -8 4 2
10 13 9 13 12 -2 21 -24 13 -23 44 3 85 20 34 58 52 78 39 6 -3 11 0 11 7 0 9
3 9 10 -2 9 -13 11 -13 20 0z m24 -72 c10 -48 15 -324 7 -337 -5 -8 -16 -11
-25 -8 -13 5 -16 26 -16 129 -1 68 -3 140 -6 160 -8 57 29 109 40 56z m-75
-79 c-12 -7 -11 -9 1 -9 13 0 13 -1 0 -10 -12 -8 -13 -12 -2 -19 11 -7 10 -9
-3 -14 -9 -4 -14 -3 -11 1 2 4 1 14 -3 21 -4 7 -7 -10 -6 -37 1 -26 5 -54 9
-61 5 -7 4 -17 -2 -23 -6 -6 -8 -18 -4 -27 5 -14 3 -14 -11 -3 -9 8 -13 21
-10 30 3 9 3 14 -1 10 -14 -12 -14 -57 -1 -51 7 2 16 0 19 -6 4 -6 14 -7 22
-4 13 5 13 7 2 14 -11 8 -11 10 1 18 9 6 10 10 2 14 -7 3 -7 5 1 3 18 -4 17
-37 -2 -60 -14 -17 -13 -19 1 -14 12 5 16 0 15 -19 -1 -14 6 -29 14 -33 8 -4
24 -12 36 -17 16 -9 24 -6 42 12 16 16 18 25 10 33 -9 9 -9 12 0 12 6 0 9 6 6
14 -3 8 3 20 15 27 15 10 17 16 9 26 -19 23 4 14 27 -11 15 -16 19 -27 12 -30
-8 -3 -7 -8 3 -15 11 -8 12 -11 2 -11 -7 0 -10 -4 -7 -10 3 -5 1 -10 -4 -10
-6 0 -10 -6 -8 -12 1 -7 -4 -12 -12 -10 -7 2 -20 -6 -27 -17 -15 -20 -50 -24
-71 -9 -7 6 -14 4 -19 -3 -5 -8 -3 -9 6 -4 9 5 11 4 6 -3 -10 -17 -39 -15 -33
1 3 8 2 19 -2 26 -6 9 -11 7 -22 -5 -13 -16 -12 -17 6 -10 16 6 18 5 8 -5 -10
-10 -19 -7 -42 15 -18 17 -27 34 -24 44 5 11 3 13 -7 7 -9 -5 -11 -4 -6 3 4 7
2 12 -5 12 -8 0 -8 4 1 15 7 8 9 15 4 15 -5 0 -9 27 -9 60 0 33 4 60 9 60 5 0
3 6 -3 14 -9 11 -8 15 4 20 9 3 14 2 11 -2 -2 -4 0 -14 5 -22 7 -11 8 -6 4 15
-3 23 1 34 18 47 18 14 20 19 10 29 -7 7 -13 17 -13 21 0 4 10 -2 21 -13 17
-17 19 -23 8 -30z"/>
<path d="M4360 1084 c-1 -99 -3 -213 -6 -255 l-6 -76 32 -7 c18 -3 48 -6 66
-6 l34 0 0 150 c0 83 3 150 8 150 4 0 15 -66 25 -147 9 -80 18 -147 19 -149 2
-1 23 -4 48 -6 l44 -3 26 155 25 155 3 -157 3 -158 58 0 58 0 7 61 c3 34 6
148 6 254 l0 192 -87 7 c-61 4 -89 3 -94 -5 -4 -6 -10 -35 -14 -63 -8 -67 -26
-148 -31 -144 -2 2 -10 51 -19 108 -9 57 -18 106 -20 108 -2 3 -45 7 -95 10
l-90 5 0 -179z m100 145 c0 -6 8 -8 19 -4 11 3 22 1 26 -5 3 -6 10 -8 14 -5 5
2 8 -14 7 -36 -1 -22 2 -43 7 -46 4 -3 6 -11 3 -19 -3 -8 0 -14 7 -14 8 0 7
-4 -3 -10 -13 -9 -13 -11 0 -20 12 -8 12 -10 1 -10 -11 0 -10 -5 4 -20 14 -15
15 -19 4 -15 -12 4 -14 -1 -11 -30 2 -19 8 -37 12 -40 4 -2 6 10 4 27 -4 30
-3 31 10 12 15 -19 16 -18 40 7 14 15 22 29 19 32 -3 3 -2 11 3 18 4 7 8 39
10 73 4 90 11 108 35 101 11 -4 41 -8 66 -9 39 -3 47 -7 48 -24 1 -12 -2 -27
-7 -34 -6 -10 -8 -10 -8 0 0 6 -4 12 -10 12 -5 0 -7 -8 -4 -17 5 -16 4 -16
-10 1 -8 10 -19 15 -24 12 -6 -3 -9 4 -8 17 2 14 -2 24 -10 24 -6 0 -10 -6 -7
-14 3 -7 0 -14 -6 -14 -6 -1 -17 -2 -23 -3 -7 -1 -12 -8 -10 -16 2 -7 -3 -17
-10 -21 -10 -7 -10 -9 0 -9 6 0 12 -5 12 -11 0 -5 -4 -7 -10 -4 -5 3 -10 1
-10 -4 0 -14 17 -14 26 0 4 7 7 21 8 33 1 30 31 27 32 -3 2 -29 29 -52 52 -43
10 4 12 7 4 10 -7 2 -12 7 -12 12 0 13 29 20 36 8 4 -7 3 -8 -5 -4 -8 5 -10
-2 -7 -26 3 -18 3 -27 0 -20 -11 24 -23 12 -21 -20 1 -23 -2 -32 -11 -30 -8 1
-11 -2 -7 -8 4 -6 12 -7 24 -1 15 9 17 5 17 -33 0 -32 -4 -42 -16 -42 -9 0
-16 9 -17 21 -1 11 1 14 4 8 3 -7 10 -13 16 -13 8 0 8 3 -1 12 -9 9 -9 15 1
27 10 14 10 14 -4 4 -9 -7 -18 -10 -21 -8 -8 8 -2 -90 6 -104 4 -6 12 -11 18
-11 7 0 6 6 -2 15 -10 12 -10 15 1 16 10 0 11 2 2 6 -7 2 -13 10 -13 16 0 8 4
7 12 -1 6 -6 13 -31 13 -55 1 -35 -2 -43 -16 -43 -10 0 -15 4 -13 8 3 4 -2 5
-11 1 -13 -5 -14 -7 -3 -14 11 -8 11 -10 -1 -18 -9 -6 -5 -8 15 -8 16 0 23 2
17 4 -7 3 -13 10 -13 16 0 25 25 -15 26 -42 1 -25 -2 -27 -25 -24 -14 2 -31 5
-37 5 -11 1 -12 27 -1 44 3 6 4 22 1 35 -10 45 -11 69 -5 74 9 5 6 159 -3 174
-4 6 -17 9 -29 7 -12 -3 -26 -5 -31 -5 -4 -1 -6 -8 -3 -16 4 -8 2 -17 -3 -20
-4 -3 -7 -23 -5 -44 2 -33 0 -39 -14 -33 -14 5 -14 4 -2 -11 8 -10 9 -17 3
-17 -6 0 -15 6 -19 14 -7 12 -10 12 -21 0 -7 -8 -8 -14 -3 -14 6 0 15 -10 22
-21 7 -15 8 -19 0 -15 -7 5 -8 1 -4 -10 4 -11 8 -13 11 -6 2 7 8 12 13 12 4 0
6 -6 3 -14 -3 -9 -17 -14 -32 -13 -20 2 -27 8 -28 25 -1 12 -4 25 -7 29 -4 3
-5 -15 -2 -41 2 -25 0 -46 -5 -46 -10 0 -34 195 -26 208 8 13 -25 38 -49 38
-21 -1 -19 17 -27 -268 -2 -49 -5 -58 -20 -58 -20 0 -24 15 -8 25 6 4 7 11 4
17 -4 6 0 14 7 19 12 7 11 9 -1 9 -13 0 -13 1 0 10 13 9 13 11 0 20 -12 8 -12
10 -1 10 11 0 11 3 0 17 -12 15 -12 16 6 10 20 -7 20 -7 0 8 -17 14 -18 17 -5
25 8 5 10 10 4 10 -16 0 -11 63 6 78 13 11 13 14 -3 26 -14 11 -15 15 -5 20
10 5 10 7 1 12 -8 4 -3 15 17 34 21 20 25 31 17 39 -8 8 -8 11 1 11 7 0 15 -6
18 -14 6 -16 34 -10 34 6 0 6 -6 8 -14 5 -9 -4 -13 3 -12 21 1 19 -4 26 -21
27 -13 1 -30 -6 -39 -16 -9 -10 -21 -16 -26 -13 -4 3 -7 0 -6 -7 2 -6 -3 -14
-9 -16 -9 -3 -13 8 -13 36 l0 41 40 0 c22 0 40 -5 40 -11z"/>
<path d="M6348 1239 c-61 -31 -68 -57 -68 -231 0 -167 8 -213 43 -246 46 -43
176 -46 232 -5 52 39 57 64 53 248 -4 185 -9 203 -61 235 -44 27 -148 27 -199
-1z m58 -10 c4 -8 9 -7 15 2 5 8 9 9 9 3 0 -13 -46 -54 -54 -48 -3 2 -2 -1 3
-7 5 -6 7 -18 4 -25 -3 -8 1 -14 8 -14 11 0 11 -3 -1 -10 -13 -9 -13 -11 0
-20 8 -5 10 -10 5 -10 -12 0 -13 -79 -2 -97 5 -7 4 -13 -1 -13 -13 0 -10 -33
3 -42 6 -5 6 -8 -1 -8 -12 0 -12 -89 0 -108 4 -7 5 -16 1 -22 -3 -5 9 -13 27
-18 38 -11 73 5 73 33 0 10 6 20 13 23 6 2 12 8 12 14 0 6 -6 8 -13 5 -8 -3
-14 1 -14 8 0 8 7 11 16 7 14 -5 14 -4 1 13 -12 14 -15 49 -16 155 -1 138 -5
163 -27 158 -13 -3 -17 4 -17 25 0 8 4 7 10 -3 8 -12 12 -13 19 -2 6 11 10 10
15 -3 3 -9 12 -15 20 -12 34 13 56 -28 59 -110 1 -24 7 -43 12 -43 6 0 3 -5
-5 -11 -12 -9 -13 -12 -1 -16 11 -5 11 -7 0 -14 -12 -8 -12 -10 -1 -18 11 -7
11 -9 -1 -14 -11 -4 -14 1 -13 18 2 13 0 29 -5 36 -4 7 -7 -4 -5 -27 2 -32 6
-38 21 -36 16 3 17 2 6 -12 -11 -13 -11 -16 0 -16 11 0 11 -2 -1 -10 -12 -8
-13 -12 -2 -19 11 -7 11 -9 -1 -14 -11 -4 -14 1 -12 19 1 13 -2 27 -7 30 -4 3
-8 2 -7 -3 3 -19 -2 -33 -11 -33 -6 0 -10 6 -8 14 2 8 -1 15 -7 15 -5 0 -9 -7
-7 -15 2 -8 -3 -14 -9 -14 -7 0 -5 -6 6 -13 11 -9 15 -19 10 -27 -5 -8 -4 -11
2 -7 6 4 10 -1 9 -10 0 -9 5 -17 12 -19 7 -1 8 0 2 3 -5 2 -7 9 -4 15 4 6 10
5 15 -3 6 -10 9 -11 9 -1 0 6 5 12 11 12 8 0 7 -6 -2 -16 -8 -9 -14 -24 -14
-33 0 -10 -7 -15 -18 -13 -9 2 -17 -1 -16 -5 1 -4 1 -15 0 -23 -1 -13 -2 -13
-11 0 -9 13 -12 13 -21 -3 -6 -9 -15 -15 -20 -11 -5 3 -16 1 -23 -5 -7 -6 -22
-8 -34 -6 -12 3 -32 7 -43 10 -12 2 -22 6 -23 7 -1 2 -10 14 -21 27 -11 14
-14 21 -7 17 6 -4 12 -2 12 4 0 6 -7 13 -15 16 -10 4 -13 15 -10 32 2 14 1 30
-2 36 -10 16 -11 46 -1 52 4 3 8 10 8 15 0 6 -4 8 -8 5 -10 -6 -9 51 1 60 10
10 9 26 -1 20 -5 -3 -9 7 -9 22 0 15 -1 32 -3 37 -8 30 4 61 34 91 35 35 59
43 72 23z m56 -110 c3 -30 6 -109 7 -177 1 -102 -2 -124 -14 -129 -9 -3 -19
-2 -23 2 -9 8 -16 330 -8 351 12 31 31 7 38 -47z"/>
<path d="M5933 1238 c-58 -13 -100 -56 -109 -113 -3 -25 -5 -107 -2 -182 4
-156 15 -189 75 -217 45 -21 139 -21 183 2 63 32 71 59 71 246 -1 91 -5 175
-10 188 -14 35 -55 69 -98 79 -45 10 -54 10 -110 -3z m85 -32 c7 -4 16 -5 21
-2 5 3 14 -1 21 -9 9 -10 9 -15 1 -15 -6 0 -11 6 -11 13 0 8 -4 7 -10 -3 -9
-13 -11 -13 -20 0 -8 12 -10 12 -10 1 0 -11 -3 -11 -15 -1 -12 10 -15 10 -15
-1 0 -8 -6 -5 -14 6 -14 19 -15 19 -40 -8 -20 -22 -22 -27 -8 -25 16 3 17 -12
17 -179 0 -161 3 -184 19 -202 10 -11 24 -17 32 -14 8 3 17 -3 20 -12 5 -13 9
-14 15 -4 4 8 11 10 16 6 12 -13 -16 -25 -52 -22 -22 1 -42 11 -59 31 -14 16
-26 24 -26 18 0 -7 7 -14 15 -18 8 -3 15 -11 15 -17 0 -8 -7 -6 -18 4 -10 10
-22 15 -25 12 -4 -3 -5 -2 -2 2 3 3 -2 14 -10 23 -13 14 -12 16 5 16 10 0 16
-5 13 -10 -3 -5 -1 -6 6 -2 6 4 19 2 28 -6 14 -11 16 -11 8 2 -5 8 -10 22 -10
30 0 8 -8 14 -17 14 -10 -1 -15 2 -12 7 3 5 -3 6 -12 2 -11 -4 -13 -8 -6 -11
7 -2 12 -9 12 -15 0 -6 -8 -4 -17 6 -15 14 -17 41 -19 173 l-1 156 29 34 c28
31 34 34 77 31 26 -2 53 -7 59 -11z m79 -38 c-6 -4 -14 -5 -18 -3 -3 3 -5 -10
-3 -28 1 -17 0 -26 -3 -19 -2 6 -9 12 -14 12 -6 0 -7 -6 -2 -12 4 -7 6 -21 5
-30 -2 -10 2 -18 8 -18 6 0 10 8 8 18 -2 12 3 16 17 14 17 -2 17 -1 5 8 -13 9
-13 11 0 20 10 6 11 10 3 10 -7 0 -13 5 -13 12 0 24 24 -11 27 -39 1 -16 4
-45 7 -65 2 -23 0 -36 -7 -35 -6 1 -12 -11 -13 -28 -2 -21 0 -25 6 -15 5 8 6
19 3 25 -4 5 -2 6 2 2 5 -4 10 -27 10 -50 1 -35 -2 -43 -16 -44 -10 -1 -21 2
-24 7 -2 4 3 7 12 6 12 -1 18 7 19 21 1 13 -3 20 -9 16 -5 -3 -16 2 -23 11
-11 15 -12 12 -9 -23 2 -25 -2 -47 -10 -55 -10 -10 -11 -16 -2 -25 8 -8 7 -11
-3 -11 -13 0 -13 -2 0 -10 8 -5 15 -16 15 -25 0 -8 4 -15 8 -15 29 0 31 1 17
11 -11 7 -12 12 -3 15 8 4 5 12 -8 25 -23 23 -19 36 13 34 24 -2 31 -29 15
-52 -5 -7 -6 -16 -3 -21 3 -5 -8 -22 -24 -37 -24 -23 -32 -26 -44 -16 -8 7
-21 9 -28 5 -7 -4 -4 4 8 17 16 18 20 36 19 76 -1 32 2 50 8 46 6 -4 7 -1 1 8
-5 8 -9 64 -10 124 -1 61 -3 117 -5 125 -3 10 2 14 14 12 9 -2 20 4 23 12 5
12 9 13 19 3 9 -8 10 -14 2 -19z m-89 -187 c2 -168 -4 -210 -27 -186 -10 12
-23 311 -14 344 3 13 12 21 22 19 14 -3 16 -26 19 -177z"/>
<path d="M5464 1234 c-12 -3 -39 -20 -60 -38 l-39 -34 0 -190 0 -191 29 -30
c51 -53 147 -66 223 -31 58 26 83 69 83 143 l0 57 -70 0 -69 0 -3 -62 c-2 -52
-6 -63 -22 -66 -10 -2 -22 2 -27 10 -10 15 -12 308 -3 332 3 9 14 16 24 16 23
0 30 -19 30 -86 l0 -54 70 0 70 0 0 61 c0 112 -44 159 -154 164 -33 2 -71 1
-82 -1z m134 -42 c2 -7 8 -10 12 -7 5 3 18 0 28 -6 15 -9 17 -15 8 -25 -8 -8
-15 -9 -23 -2 -9 7 -13 7 -13 -1 0 -6 -13 2 -29 18 -19 20 -31 26 -35 18 -3
-9 -7 -8 -15 3 -8 12 -11 12 -11 1 0 -11 -3 -11 -17 0 -14 12 -16 12 -11 -1 9
-24 -15 -50 -42 -45 -12 2 -20 2 -16 -2 3 -3 0 -13 -6 -21 -7 -8 -13 -19 -14
-26 -1 -6 -3 -17 -5 -25 -3 -8 5 -14 17 -15 11 -2 21 4 22 11 1 7 3 19 4 27 1
8 8 12 16 9 11 -5 11 -7 0 -14 -11 -8 -11 -10 0 -18 11 -7 11 -9 -1 -14 -8 -3
-14 -17 -14 -32 0 -15 6 -29 14 -32 12 -5 12 -7 1 -14 -11 -7 -10 -11 2 -20
13 -9 13 -10 0 -6 -8 2 -14 11 -14 20 1 9 -3 14 -9 10 -5 -3 -7 -2 -4 4 3 5
-4 9 -16 8 -13 -2 -21 -8 -18 -16 2 -8 4 -19 4 -26 0 -7 4 -10 8 -7 5 2 6 11
2 19 -3 8 0 15 6 15 10 0 15 -14 12 -32 0 -5 2 -7 7 -7 31 5 39 -16 19 -48 -5
-8 -3 -13 5 -14 10 0 11 -2 0 -6 -10 -4 -10 -8 0 -21 11 -13 11 -14 -2 -10 -9
3 -15 17 -15 36 0 17 -4 34 -9 39 -4 4 -7 3 -6 -2 4 -19 0 -35 -9 -35 -4 0 -7
11 -6 25 2 14 0 23 -4 20 -12 -7 -6 -46 10 -57 10 -7 11 -11 2 -14 -8 -4 -2
-16 18 -35 16 -16 25 -29 19 -29 -5 0 -10 -4 -10 -9 0 -6 8 -10 18 -9 9 0 31
-4 48 -10 22 -7 35 -6 47 3 17 12 24 31 9 21 -12 -7 -2 96 9 109 6 5 9 5 9 -3
0 -6 7 -9 17 -5 10 4 14 2 9 -5 -3 -6 -1 -14 5 -18 7 -4 9 -3 6 2 -3 6 -2 16
3 24 6 10 8 6 6 -15 -1 -20 -7 -29 -17 -27 -8 2 -11 0 -6 -4 4 -4 -2 -17 -13
-29 -18 -19 -18 -23 -6 -41 15 -20 35 -11 39 17 2 8 6 20 10 27 5 6 4 12 -1
12 -6 0 -12 -7 -16 -15 -3 -8 -11 -15 -17 -15 -7 0 0 11 15 25 15 14 29 25 31
25 2 0 2 -14 0 -31 -5 -36 -33 -72 -51 -65 -7 3 -15 -1 -17 -9 -7 -17 -70 -13
-93 6 -16 12 -17 12 -12 -1 9 -24 -30 -23 -43 1 -6 11 -17 18 -24 15 -9 -3
-12 0 -8 9 3 9 -2 18 -12 21 -13 5 -14 9 -3 15 11 7 10 11 -2 19 -12 8 -12 10
-1 10 11 0 9 5 -5 22 -10 12 -13 18 -6 14 15 -9 16 10 1 20 -8 4 -7 9 2 15 8
5 9 9 4 9 -16 0 -11 66 6 86 12 16 12 17 -3 12 -17 -7 -19 7 -5 30 5 6 4 12
-1 12 -8 0 -8 21 3 76 3 11 14 32 25 46 18 24 25 25 97 24 49 -1 78 -6 81 -14z"/>
<path d="M4975 1198 c-13 -76 -75 -464 -75 -470 0 -5 33 -8 74 -8 l75 0 3 43
c3 39 5 42 33 42 28 0 30 -3 33 -41 l3 -42 65 -7 c36 -4 68 -4 72 -1 3 4 -12
120 -34 259 l-39 252 -102 3 -102 3 -6 -33z m161 -9 c16 -12 17 -12 11 4 -4
11 -3 16 3 12 6 -3 8 -20 5 -36 -3 -18 -2 -28 4 -25 5 3 8 -5 6 -19 -1 -14 3
-25 9 -25 6 0 4 -5 -4 -10 -13 -8 -12 -11 5 -25 20 -15 20 -15 0 -8 -19 6 -19
6 -2 -14 9 -11 14 -23 11 -26 -4 -4 -3 -12 3 -19 5 -7 9 -36 8 -65 -1 -32 2
-50 8 -46 6 3 7 1 3 -5 -4 -7 -2 -12 4 -12 6 0 8 -5 4 -11 -4 -8 -9 -7 -15 2
-7 11 -9 11 -9 1 0 -7 7 -15 16 -19 13 -5 13 -7 2 -15 -10 -7 -10 -10 3 -18
10 -6 15 -20 13 -36 -3 -31 -10 -39 -19 -25 -3 6 0 11 7 11 9 0 9 3 -2 10 -13
9 -13 11 0 21 13 9 13 10 0 6 -8 -2 -16 -10 -16 -18 -1 -8 -2 -21 -3 -29 -1
-13 -2 -13 -11 0 -9 13 -11 13 -20 0 -7 -12 -11 -7 -17 20 -4 19 -6 38 -6 41
4 15 -37 42 -49 32 -7 -5 -23 -8 -35 -7 -13 0 -23 -3 -23 -8 0 -5 -4 -6 -10
-3 -5 3 -10 1 -10 -4 0 -6 6 -11 13 -12 9 0 9 -2 -1 -6 -9 -4 -10 -9 -2 -18 8
-9 7 -14 -4 -18 -8 -3 -13 1 -12 11 0 9 -6 17 -14 17 -9 0 -15 -10 -16 -24 -1
-24 -21 -43 -39 -37 -17 5 -5 50 18 69 22 17 22 17 3 32 -11 8 -15 15 -9 15 7
0 12 8 12 18 0 17 9 97 15 137 2 11 4 28 5 38 1 14 7 16 34 12 29 -5 30 -4 13
9 -10 8 -15 20 -11 28 3 7 0 5 -8 -5 -10 -12 -17 -14 -22 -8 -3 6 -2 11 4 11
5 0 8 12 6 28 -2 15 -1 42 2 60 l5 33 59 -4 c32 -2 66 -10 75 -18z"/>
<path d="M5040 1175 c-7 -13 -17 -22 -22 -19 -4 3 -8 2 -9 -3 0 -4 -2 -17 -3
-28 -2 -14 3 -21 16 -21 22 0 22 1 3 19 -13 13 -13 16 1 21 10 4 13 2 8 -6 -4
-6 -3 -8 4 -4 6 3 14 1 18 -5 4 -7 3 -9 -2 -6 -6 3 -11 -18 -12 -51 -2 -84 -4
-93 -17 -88 -7 2 -12 -3 -11 -12 0 -10 -5 -16 -14 -14 -8 2 -12 0 -8 -4 4 -4
3 -13 -3 -21 -9 -9 -8 -13 0 -13 6 0 11 4 11 10 0 5 8 14 18 19 16 8 18 6 18
-19 0 -23 -3 -27 -16 -20 -9 5 -22 5 -31 -1 -10 -6 -10 -9 -1 -9 6 0 12 -5 12
-10 0 -6 -8 -10 -17 -8 -20 3 -25 -28 -8 -51 7 -10 3 -19 -15 -33 -18 -15 -21
-21 -11 -27 9 -6 10 -10 2 -14 -7 -3 -7 -4 1 -2 7 1 12 8 10 15 -4 17 19 42
34 36 8 -3 11 0 8 8 -7 18 12 29 49 31 16 1 32 7 37 14 12 20 69 -43 66 -72
-2 -16 3 -23 15 -23 10 0 15 4 13 8 -3 4 -2 14 2 20 11 17 12 48 4 53 -4 3 -6
36 -5 74 1 53 -2 68 -12 64 -16 -6 -17 -20 0 -26 6 -2 0 -4 -15 -4 -24 0 -28
4 -32 41 -7 50 -4 116 4 116 15 0 19 -14 9 -27 -9 -10 -8 -13 2 -13 11 0 11
-3 -1 -11 -12 -8 -12 -10 -1 -7 20 6 22 69 3 91 -10 11 -11 17 -4 17 7 0 4 8
-5 18 -12 12 -21 14 -25 8 -6 -8 -11 -7 -17 2 -7 11 -9 11 -14 -2 -4 -9 -12
-16 -19 -15 -10 0 -10 2 0 6 13 5 17 23 4 23 -5 0 -15 -11 -22 -25z"/>
</g>
</svg>
